<?xml version="1.0" encoding="UTF-8" standalone="no"?>
<!DOCTYPE svg PUBLIC "-//W3C//DTD SVG 1.1//EN" "http://www.w3.org/Graphics/SVG/1.1/DTD/svg11.dtd">
<svg width="100%" height="100%" viewBox="0 0 1909 1488" version="1.1" xmlns="http://www.w3.org/2000/svg" xmlns:xlink="http://www.w3.org/1999/xlink" xml:space="preserve" xmlns:serif="http://www.serif.com/" style="fill-rule:evenodd;clip-rule:evenodd;stroke-linejoin:round;stroke-miterlimit:2;">
    <g transform="matrix(4.16667,0,0,4.16667,0,0)">
        <g>
            <path d="M353.774,136.29L353.769,136.33L353.664,136.756L353.486,137.365L353.333,137.869L352.921,139.181L352.385,140.847L351.918,142.276L351.516,143.498L351.028,144.968L350.458,146.677L353.086,152.65C346.693,167.807 337.5,190.409 337.5,191.398C337.5,192.523 338.477,193.273 340.125,193.426C340.574,193.5 345.074,181.352 350.176,166.426L354.079,154.907L353.086,152.65C356.391,144.817 358.947,138.972 359.102,139.125L354.077,154.914L354.079,154.907L355,157L362.187,146.618L363.218,144.204L363.669,143.161L364.097,142.189C364.186,141.99 364.244,141.87 364.266,141.834L364.272,141.826L364.273,141.824L364.272,141.826L364.266,141.834L364.087,142.211L363.322,143.965L362.996,144.725L362.187,146.618L364.272,141.826L364.42,141.638C364.438,141.618 364.457,141.598 364.477,141.58C364.493,141.564 364.511,141.549 364.529,141.537C364.541,141.529 364.553,141.522 364.566,141.517C364.575,141.513 364.585,141.511 364.595,141.51C364.6,141.51 364.605,141.511 364.609,141.512C364.612,141.512 364.615,141.513 364.618,141.514C364.639,141.523 364.651,141.545 364.658,141.565L364.67,141.614L364.675,141.733L364.633,142.098L364.565,142.449C364.514,142.685 364.457,142.919 364.396,143.153C364.289,143.569 364.173,143.983 364.053,144.396L364.051,144.404L365.37,154.964L364.294,157.527L363.17,160.215L361.817,163.462L360.587,166.422L358.5,171.449C350.25,191.324 348.148,196.949 348.898,197.773C349.352,198.375 350.25,198.75 350.852,198.602C351.523,198.449 355.051,189.227 360.75,172.875C362.732,167.122 364.41,162.241 365.778,158.225L366.971,154.708L367.607,152.813L368.392,150.451L368.739,149.399L368.589,149.862L368.392,150.451L368.072,151.424L367.079,154.387L366.726,155.432L365.778,158.225L366.874,166.991L354,198.977L354,199.003C354.016,200.114 355.064,200.853 356.773,200.926C357.227,201 358.801,197.551 360.227,193.352C361.38,189.882 364.412,181.132 367.518,172.147L366.874,166.99L375.824,146.551C376.199,146.398 373.352,155.102 369.676,165.898C368.968,167.951 368.241,170.055 367.518,172.147L368,176L377,167C377,167 381.375,192.523 381.523,192.676C381.676,192.898 391.5,183.75 392.023,183.75C393,183.75 395.773,204.676 396.074,205.051C396.375,205.352 406.949,198 406.949,198L408.395,218.505L392.841,231.203L386.746,223.251L383,227L386,231C386,231 385.674,231.034 383.5,233L376,239.5L366.5,265.5L379,280C379,280 402.53,272.179 405,271C405.636,270.696 414,264 414,264L417,267L421,263L412.841,254.203L423.596,246L430,243.5C430,243.5 426,262.423 426,262.5C426,262.727 440.699,254.551 440.852,254.926C441,255.301 434.699,280.426 435.148,280.875C435.375,281.102 448.051,276.75 448.199,276.977C448.426,277.199 442.199,300.523 442.574,300.602C442.949,300.75 454.727,298.5 454.875,298.648C455.023,298.727 444,322.125 444,322.352C444,322.5 456.75,321.898 456.75,322.273C456.75,322.648 443.25,343.426 443.25,343.875C443.25,344.551 457.875,344.102 457.875,344.102L444.375,356.926L225.824,357L7.352,357L7.801,355.352C8.102,354.375 8.477,352.574 8.773,351.227L9.148,348.824L0,347.477L9,332L2.773,329.477C2.773,329.477 4.727,325.199 7.574,320.773C10.426,316.273 12.75,312.375 12.75,312.074C12.75,311.738 3.449,309.074 3.449,309.074L15,292L6.75,287.773L21.148,272.398L13.5,268.051C13.5,268.051 20.625,260.699 28.426,254.477L30.227,253.051L21.227,247.051C21.227,247.051 42,232.199 42,232.125C42,231.977 33.145,226 33.145,226C33.145,226 47.773,216.602 51.523,214.648C55.352,212.699 58.5,210.824 58.5,210.449C58.5,210.074 57,208.5 55.125,206.852C52.5,204.523 51.824,203.477 52.199,202.199C52.426,201.074 51.824,199.574 50.102,197.25C48.676,195.375 44.551,189.523 40.875,184.125C37.199,178.801 32.773,172.352 30.977,169.949C28.426,166.574 27.75,164.926 27.898,163.199C28.125,161.176 28.352,160.875 30.227,161.023C33.148,161.25 33.977,162.074 39.227,169.875C43.727,176.625 54.301,190.875 58.352,195.676L60.523,198.227L67.199,196.5C70.875,195.523 74.023,194.625 74.176,194.551C74.324,194.398 72.898,192.602 70.949,190.426C69.074,188.324 67.5,185.625 67.5,185.625L88.199,180C88.199,180 84.227,170.852 79.051,167.852C76.801,166.648 75,165.301 75,165C75,164.625 77.551,162.449 80.625,160.125C83.699,157.801 86.398,155.625 86.551,155.324C86.773,155.023 85.648,152.25 84,149.176C79.803,141.074 77.376,134.282 75.912,126C75.519,123.775 75.196,121.443 74.926,118.949C73.875,108.375 74.477,103.5 77.176,100.574C78.602,99.074 79.801,98.477 80.699,98.699C81.523,98.926 87.523,106.352 94.125,115.125L106.125,131.25L112.801,131.25C119.102,131.25 119.551,131.102 122.551,128.852C130.125,123.074 130.5,122.477 130.5,116.773L130.5,111.676L117.898,93.898C102.375,72.074 102.75,72.602 102.75,71.551C102.75,70.051 109.949,68.852 121.5,68.477C134.699,67.949 138.523,68.773 149.852,74.477C169.801,84.449 178.574,98.25 180.375,122.324L180.898,128.852L185.25,130.801C187.574,131.852 189.824,132.75 190.125,132.75C190.426,132.75 190.495,121 190.495,121C190.495,121 205.125,126.824 206.926,127.574L210.227,129.074L209.773,116.852C209.477,110.102 208.648,101.176 207.898,96.898L206.477,89.176L209.023,85.875C211.801,82.125 212.102,79.574 210.75,67.199C209.926,59.477 208.199,56.176 203.102,52.648C198.75,49.727 194.773,48.523 189.375,48.449C183.676,48.449 179.926,50.324 175.273,55.5L171.898,59.25L155.023,59.25C145.727,59.25 137.625,59.023 136.949,58.801C135.898,58.426 135.75,55.273 135.75,31.801C135.75,14.176 136.051,4.727 136.574,3.523C137.625,1.199 141.449,0.75 158.398,0.75L170.324,0.75L174.227,3.75C180.523,8.477 184.727,10.051 191.25,10.051C198.227,10.051 203.477,8.102 209.25,3.375L213.375,0L230.625,0C253.574,0 262.727,1.648 276.375,8.398C298.801,19.426 318.977,40.5 335.477,70.125C340.426,79.125 341.023,80.852 339.449,81.449C338.699,81.75 336.375,80.176 332.852,76.875C311.551,57.375 290.023,46.5 269.773,45.227C260.851,44.699 260.101,45.148 258.449,52.426C257.25,57.824 255.375,70.949 254.625,78.898L254.176,84L257.176,87.227L260.176,90.449L258.75,100.5C257.023,112.352 257,127 257,127L264,113L279,131L285,115L298,133L306,117L314.143,131.928L314.147,131.92C314.583,130.984 314.977,130.144 315.323,129.416L316.014,127.977L316.487,127.023C316.593,126.814 316.682,126.645 316.753,126.517L316.91,126.258C316.918,126.246 316.926,126.238 316.932,126.232L316.935,126.23L316.938,126.228L316.942,126.226L316.94,126.227L316.932,126.232L316.91,126.258L316.753,126.517L316.462,127.072L315.967,128.074L315.323,129.416L314.143,131.929C312.211,136.079 309.458,142.133 306.449,148.875C297.977,167.773 296.324,172.051 297.074,172.949C297.602,173.551 298.5,174 299.102,173.852C299.773,173.699 303.227,165.227 308.699,150.074C311.116,143.441 313.258,137.396 314.754,133.05L314.143,131.929L316.949,126.227L316.946,126.226L316.944,126.225L316.946,126.226L316.948,126.226L316.949,126.227L314.754,133.05L315.621,130.509L316.362,128.268L316.606,127.507L316.894,126.54L316.954,126.251L316.953,126.236C316.953,126.24 316.954,126.245 316.954,126.251L316.954,126.251C316.953,126.295 316.932,126.392 316.894,126.54L316.703,127.199L316.455,127.986L316.146,128.938L315.612,130.535L314.754,133.05L317.804,138.641L319.194,135.486L319.285,135.282L317.804,138.641C311.16,153.797 302.262,175.178 302.551,175.949C303.227,177.75 305.773,177.148 306.602,174.977C307.273,172.949 318.602,142.273 323.176,129.977C323.436,129.273 323.673,128.597 323.884,127.967L326,124L328.785,129.823C323.683,140.361 307.484,177.846 307.875,178.5C308.102,178.949 309.074,179.25 309.977,179.25C311.477,179.25 312.602,176.773 321,153.676C325.451,141.499 327.96,134.673 329.312,130.924L328.785,129.823C329.534,128.274 330.044,127.308 330.227,127.125C330.765,126.587 331.331,125.321 329.312,130.924L332.619,137.84C330.574,142.369 327.671,148.971 323.699,158.102C315.301,177.301 313.574,181.801 314.324,182.699C314.852,183.301 315.75,183.75 316.352,183.602C317.102,183.449 320.852,174.074 327.074,156.75L333.353,139.398L333.358,139.385L332.619,137.84C335.48,131.506 336.664,129.226 336.75,129.75L333.352,139.403L333.358,139.385L336.035,144.983L330.523,157.648L330.055,158.74C320.373,181.341 319.593,183.463 320.773,184.352C321.449,184.875 322.426,185.176 322.801,185.023C323.25,184.875 327.75,173.176 332.852,159.074C334.484,154.467 336.014,150.098 337.333,146.286L344,132L345.99,136.522C327.439,180.849 325.354,186.077 326.324,187.199C326.852,187.801 327.75,188.25 328.352,188.102C329.023,187.949 332.773,178.199 338.699,160.949C342.059,151.172 344.963,142.532 346.51,137.706L345.99,136.522L346.157,136.126C346.822,134.59 347.48,133.502 347.699,133.648C347.751,133.726 347.313,135.203 346.51,137.706L349.763,145.098L350.222,144.042L351.13,141.97L351.512,141.104C351.818,140.412 352.098,139.783 352.349,139.226L352.406,139.101L351.477,141.183L350.679,143.002L349.763,145.098C347.794,149.628 345.258,155.563 342.523,162.074C333.898,182.773 331.727,188.699 332.398,189.523C332.852,190.125 333.75,190.5 334.352,190.352C335.023,190.199 338.699,180.824 344.699,163.5C346.895,157.204 348.897,151.339 350.458,146.677L349.763,145.098L353.773,136.273L350.458,146.677L351.291,144.174L351.693,142.957L352.176,141.484L352.513,140.45L352.952,139.083C352.952,139.083 353.486,137.365 353.486,137.365L353.575,137.06L353.769,136.33L353.774,136.29L353.774,136.278L353.774,136.276L353.774,136.277L353.774,136.28L353.774,136.29ZM361,270C362.253,268.161 363,267 363,267C363,267 371.25,244.801 371.25,244.352C371.25,243.449 365.176,236.023 359.477,230.023L355.352,225.75L353.324,226.949C351.676,227.926 350.25,230.625 346.574,239.176C344.023,245.176 342,250.875 342,251.773C342,252.676 341.023,254.625 339.75,255.977C338.477,257.399 337.5,259.426 337.5,260.477C337.5,261.524 336.676,263.324 335.625,264.449C334.648,265.5 333.602,267 333.375,267.75C333.148,268.574 331.574,269.398 329.398,270C323.699,271.5 316.926,274.375 311,280C309.781,281.16 306.3,284.958 304,288C300.546,292.567 298.051,297.977 298.051,297.977C297.602,298.426 273.75,352.875 273.75,353.398C273.75,353.773 277.727,354 282.602,354L291.523,354L303.977,348C310.875,344.699 355.352,326.324 368.25,323.176C382.125,319.875 385.125,318.602 387.148,315.375C389.477,311.477 388.273,305.625 384.676,303.676C382.051,302.324 375,302.852 368.25,304.949C364.727,306 358.875,307.727 355.125,308.699C350.628,309.941 344.28,308.787 343.259,308.5C341.181,307.916 338.471,304.378 338,303.5C336.11,299.979 335.692,291.995 348,284.5C349.933,283.323 358.5,278.5 358.5,278.5L356.5,276L358,274.5L367.156,285.016C366.613,285.387 365.82,286 365.82,286L363,283.075C363,283.075 362.758,282.968 362.688,283C355.253,286.411 347.96,291.41 346,293C343.75,294.722 342.375,298.648 343.574,300.898C344.023,301.727 345.375,302.773 346.648,303.375C349.125,304.352 351.375,303.898 370.5,298.574C380.324,295.801 385.727,296.551 390.227,301.273C395.625,306.977 394.5,318.523 388.199,322.426C386.926,323.25 377.699,326.324 367.875,329.176C357.977,332.102 317.25,348.074 317.25,348.074C317.25,348.074 304.875,354 311.477,354L411.898,354L411.449,351.227C411.227,349.648 410.852,345.676 410.625,342.375C409.273,324.449 405.375,308.699 398.102,291.602C394.727,283.727 393,282 393,282L380,285.5L374.017,280.786C374.017,280.786 372.754,281.433 371,282.5L361,270ZM134.102,334.801C148.801,324.227 161.176,315.301 161.477,315C161.852,314.699 161.25,314.25 160.199,314.102C158.625,313.801 153.375,317.176 131.102,333.148C116.102,343.875 103.574,352.949 103.199,353.324C102.75,353.699 103.352,354 104.926,354C106.875,354 112.199,350.477 134.102,334.801ZM272.176,351.977C272.699,350.773 277.801,338.699 283.5,324.977C289.273,311.324 295.125,297.75 296.551,294.977C301.801,284.398 310.801,275.551 321.148,270.602C323.926,269.25 326.25,267.898 326.25,267.602C326.25,266.324 322.199,267.148 317.773,269.324C306.898,274.801 299.926,281.25 294.824,290.551C292.727,294.449 272.25,342.074 267.977,353.102C267.75,353.625 268.273,354 269.398,354C270.676,354 271.574,353.398 272.176,351.977ZM153.5,291.5L156.777,297.955L156.812,297.917C156.611,298.768 157.274,299.131 158.625,299.477C160.801,300 170.699,300.074 171.148,299.551C171.602,299.102 167.5,286 167.5,286L163.342,274.197C163.086,272.667 159.418,260.405 154.875,245.926C148.352,224.926 145.199,216.148 142.125,210.074C139.949,205.648 137.625,201.676 137.023,201.148C134.773,199.273 111.375,216.301 99.523,228.602L95.852,232.352L99.148,233.551C100.875,234.148 104.25,235.426 106.574,236.25C110.699,237.75 110.773,237.898 118.574,249.375C125.773,260.024 126.602,261 129,261.375C130.425,261.676 132.301,261.977 133.125,262.125C134.176,262.352 137.551,266.699 142.801,274.5L150.898,286.574L151,286.754L152.75,290.148C152.75,290.148 146.991,293.857 137.926,300.523C127.426,308.324 114.676,317.023 108.523,320.625C104.25,323.102 104.023,322.949 98.926,315.523C97.199,312.977 93.602,307.727 90.977,303.898L86.102,296.926L87.227,291.148L88.426,285.375L81.676,275.102C78,269.398 74.773,264.227 74.551,263.625C74.25,263.023 73.875,262.5 73.574,262.5C73.273,262.5 71.176,266.102 68.852,270.602C57.375,292.426 49.875,320.023 48.227,346.199L47.773,354L67.949,354L88.125,353.926L90.449,350.773C91.801,349.051 95.773,343.801 99.375,339.074C104.773,332.102 106.051,329.852 106.352,327.227C106.648,324.449 107.176,323.699 110.551,321.148C114.75,317.926 129.375,307.801 141.977,299.398C145.979,296.682 153.5,291.5 153.5,291.5ZM230.25,352.273C230.25,350.625 174.227,194.324 172.875,192.301C171.148,189.602 165.602,187.273 162.523,187.949C158.25,188.852 155.926,190.5 154.426,193.727C151.949,199.273 151.352,196.727 168.375,249.375C172.648,262.574 180.523,287.176 185.926,304.051C193.949,329.324 195.977,335.023 197.625,336.676C198.977,337.875 199.574,338.176 199.273,337.426C194.25,322.648 155.25,200.023 155.25,198.824C155.25,196.574 157.125,193.051 159.148,191.699C161.699,189.898 167.176,190.199 169.648,192.227C171.375,193.648 176.176,206.398 200.324,273.602C216.074,317.398 229.273,353.25 229.648,353.25C229.949,353.25 230.25,352.801 230.25,352.273ZM103.875,342.676C111.676,331.727 112.125,330.977 112.801,327.676C113.176,326.102 117,323.023 130.875,313.273C140.551,306.449 149.176,300.449 150.074,299.926C151.574,299.176 152.023,299.398 154.051,301.801C156.375,304.5 156.449,304.574 163.801,305.176C170.773,305.773 171.375,305.926 173.023,307.949C174.074,309.148 181.273,319.727 189.148,331.5C201.898,350.551 205.5,355.199 205.5,352.574C205.5,351.75 172.801,304.051 171.824,303.449C171.523,303.227 168.074,302.852 164.176,302.551C157.125,302.023 157.125,302.023 153.977,298.875L150.75,295.727L133.273,307.875C123.602,314.551 114.523,320.699 113.102,321.602C110.477,323.25 109.5,324.977 109.5,328.273C109.5,329.176 106.352,334.352 102.449,339.676C98.551,345 94.801,350.25 94.051,351.301C92.852,353.176 92.852,353.25 94.574,353.176C96,353.176 97.949,351 103.875,342.676ZM240.227,352.051C240,351.074 226.125,312.898 210.602,270.75C205.875,257.852 191.699,217.125 182.625,190.5L175.574,169.875L174.676,158.625C173.852,147.898 173.926,147 175.574,139.125C177.898,128.324 177.898,117 175.574,108.375C172.875,98.324 170.398,94.051 162.75,86.023C156.977,79.949 154.801,78.227 149.699,75.75C141.148,71.477 134.625,70.199 121.5,70.199C113.023,70.199 110.023,70.426 108,71.398C105.449,72.602 105.676,72.602 115.125,72.227C131.477,71.477 143.324,74.023 152.102,80.023C159,84.75 167.625,94.574 171,101.551C175.648,111.227 176.25,117.074 174,131.102C172.949,137.852 172.125,146.551 171.898,153.75L171.602,165.375L175.125,176.625C177.074,182.852 182.699,198.824 187.648,212.25C192.602,225.676 201.375,250.273 207.074,267C215.102,290.023 233.852,342.602 237.602,352.352C237.977,353.477 240.449,353.176 240.227,352.051ZM252.375,313.574C265.949,287.023 267.75,283.051 269.699,275.25C272.25,264.75 270,247.727 265.125,240.301C263.102,237.148 263.102,238.648 265.051,244.574C269.102,256.801 269.477,269.25 266.102,279.75C265.051,283.051 258.523,296.023 250.648,310.801C239.023,332.324 237.148,336.375 237.824,337.648C238.273,338.477 238.949,338.852 239.25,338.551C239.625,338.176 245.477,326.926 252.375,313.574ZM98.102,306.824C93.824,300.602 90.148,295.574 89.852,295.5C88.5,295.426 89.551,297.602 94.273,304.426C102.602,316.426 105.227,319.875 105.523,318.977C105.676,318.523 102.375,313.051 98.102,306.824ZM118.801,311.176C120.301,310.273 121.5,309.449 121.5,309.227C121.5,308.625 107.102,287.25 106.426,286.801C105.75,286.426 101.551,288.375 100.949,289.352C100.426,290.25 114.824,312.75 115.949,312.75C116.102,312.75 117.375,312.074 118.801,311.176ZM251.551,226.875C252.074,143.773 252.602,125.324 255,105.75C256.726,91.199 256.801,89.773 255.602,90.148C254.398,90.602 253.875,93.148 252.074,107.699C248.773,134.176 248.023,163.648 248.625,241.051C249.074,295.273 249.375,308.176 250.125,306.676C250.801,305.324 251.176,286.426 251.551,226.875ZM177.824,303.977C177.449,302.773 174.449,292.949 171.148,282C167.773,271.051 162.148,251.852 158.551,239.25C151.352,213.75 147.898,205.273 142.125,198.898C136.051,192.227 127.125,186.523 104.625,175.273C92.852,169.426 83.25,164.398 83.25,164.102C83.25,163.801 95.102,154.574 109.574,143.551C131.852,126.523 135.75,123.227 135.449,121.949C135.227,121.051 135,118.949 135,117.227C135,114.824 134.699,114 133.875,114C133.051,114 132.75,114.977 132.75,118.051C132.75,120.824 132.375,122.551 131.477,123.602C130.199,125.023 83.625,160.801 80.324,162.898C79.426,163.426 78.75,164.25 78.75,164.773C78.75,165.523 93.227,172.949 118.051,184.875C127.949,189.602 128.772,190.199 135.676,197.102C141,202.352 143.699,205.801 145.648,209.625C147.449,213.074 152.773,229.426 161.25,257.25C172.125,292.949 176.625,306 178.125,306C178.273,306 178.125,305.102 177.824,303.977ZM260.699,286.125C261.565,284.357 265.801,274.19 266,264C266.202,253.631 262.355,243.238 261.75,241.648C259.726,236.773 259.5,235.352 259.949,231.824C260.25,228.75 261,227.023 262.352,225.523C263.773,224.023 264.301,222.75 264.148,221.25C264,219.898 264.523,218.25 265.5,216.898C267.977,213.523 276,195 276,192.602C276,190.125 277.648,186.602 279.824,184.426C282.676,181.574 281.324,180.898 265.949,177.75C261.898,176.926 257.773,176.25 256.801,176.25L255,176.25L255,255.602L255.01,255.605L255.12,273C255.042,275.419 255,278.497 255,281.852C255.048,292.18 253.498,298.829 255,297C255.831,295.987 258.642,290.294 260.699,286.125ZM222,196.875L222,101.25L218.25,101.25L218.25,192.227C218.25,282.523 218.25,283.273 219.824,287.852C220.648,290.398 221.551,292.5 221.699,292.5C221.852,292.5 222,249.449 222,196.875ZM94.051,288.602C93.301,287.398 91.5,288.074 91.5,289.5C91.5,290.773 91.727,290.926 92.926,290.102C93.75,289.574 94.199,288.898 94.051,288.602ZM149.625,289.5C150.148,288.676 135.148,267 134.102,267C133.801,267 133.5,267.375 133.5,267.898C133.5,268.949 147.824,290.25 148.574,290.25C148.875,290.25 149.398,289.875 149.625,289.5ZM98.551,286.574C99.75,285.301 99.75,285.148 98.551,284.699C97.199,284.176 96,285.301 96,287.102C96,288.449 97.051,288.227 98.551,286.574ZM91.5,283.875C91.5,283.648 88.648,279.301 85.125,274.199C81.602,269.102 78.75,264.449 78.75,263.852C78.75,263.25 78.375,262.426 78,262.051C77.477,261.524 77.398,259.199 77.773,255.375C78.301,250.199 78.602,249.375 80.398,248.023C81.523,247.199 82.727,246.75 83.023,247.051C83.324,247.352 83.551,250.352 83.625,253.727C83.625,258.149 83.926,260.102 84.676,260.699C85.273,261.149 88.352,265.426 91.5,270.074C94.574,274.801 97.5,278.625 97.875,278.625C98.324,278.625 99.449,278.023 100.426,277.352L102.148,276.148L95.625,266.926C91.125,260.551 89.25,257.399 89.699,256.727C90.449,255.523 102.75,246.676 106.273,244.727C109.273,243.148 109.426,243.227 116.324,253.051C119.324,257.176 121.875,260.774 122.023,260.926C122.102,261.074 122.477,261 122.773,260.774C123.375,260.102 114,246.227 110.25,242.25C107.551,239.25 98.324,235.051 96.375,235.801C95.852,235.949 91.125,239.102 85.949,242.699L76.5,249.301L76.5,263.477L83.477,273.824C89.477,282.898 91.5,285.375 91.5,283.875ZM360,271.558L370,283C369.772,283.145 368.718,283.858 368.5,284L359,273.5C359.147,273.277 359.839,271.799 360,271.558ZM105.375,281.176C104.551,279.898 102.75,280.5 102.75,282C102.75,283.352 102.977,283.426 104.25,282.75C105.074,282.301 105.602,281.625 105.375,281.176ZM111,277.875C111.602,277.199 111.602,276.75 111.148,276.75C110.699,276.75 109.875,276.523 109.199,276.301C108.301,276 108,276.301 108,277.426C108,279.227 109.648,279.523 111,277.875ZM401.5,270L379,277L369,265.5L377.5,241.5L387,233L412,262L401.5,270ZM117.301,272.176C114.676,271.125 114,271.426 114,273.824L114,276.074L116.398,274.426C118.5,272.852 118.574,272.699 117.301,272.176ZM215,273C215.977,272.625 214.5,174 214.5,174C214.5,174 201.949,174.102 197,175C192.051,175.903 182.852,180.449 182.625,180.75C182.398,181.051 186,191.699 190.574,204.449C199.199,228.75 206.773,249.676 207.824,252.523C208.199,253.648 214.25,273.301 215,273ZM125.699,267.898C125.551,267.824 124.426,267.375 123.074,267C120.824,266.398 120.75,266.398 120.75,268.949L120.75,271.5L123.301,269.852C124.727,268.875 125.773,268.051 125.699,267.898ZM332.551,263.926C333.602,262.648 334.5,261.149 334.5,260.551C334.5,258.75 337.352,253.727 338.625,253.273C339.227,252.977 339.75,251.926 339.75,250.801C339.75,248.852 349.727,226.574 350.926,225.75C351.602,225.375 354,219.977 353.926,219.148C353.699,217.727 354.148,216.676 355.875,214.648C356.926,213.449 357.898,211.125 358.125,209.551L358.426,206.625L344.773,199.949C312.602,184.125 290.176,174 287.551,174C286.949,174 286.5,174.523 286.5,175.125C286.5,175.801 285.977,176.477 285.301,176.773C284.551,177 284.25,177.75 284.551,178.648C284.926,180.227 282.148,186.75 281.102,186.75C280.273,186.75 278.25,191.852 278.25,193.875C278.25,196.199 269.477,216.676 267.676,218.699C266.852,219.602 266.398,220.801 266.625,221.477C267.074,222.523 265.199,227.176 264,228C263.699,228.227 263.324,229.875 263.176,231.676L262.875,235.051L296.25,250.574C314.625,259.125 329.852,266.176 330.148,266.176C330.375,266.25 331.5,265.199 332.551,263.926ZM131.102,264.148C131.25,263.625 130.875,263.25 130.199,263.25C129.522,263.25 129,263.773 129,264.449C129,265.727 130.647,265.5 131.102,264.148ZM327,260.399C315.824,255.074 267.375,231.602 267.227,231.449C266.699,230.926 267.977,228.75 268.801,228.75C269.773,228.75 284.25,235.273 305.625,245.477C313.875,249.375 320.926,252.449 321.227,252.227C321.602,252 321.75,251.773 321.602,251.625C321.449,251.551 310.051,246.148 296.25,239.625C282.449,233.102 270.75,227.398 270.227,226.949C269.625,226.426 269.551,225.75 270,225C270.523,224.102 273.148,225.148 284.773,230.926C292.5,234.824 303.074,239.926 308.25,242.25C321,248.102 332.773,254.023 333.375,254.926C333.898,255.824 331.426,261.149 330.375,261.449C330,261.602 328.426,261.074 327,260.399ZM86.25,250.051C85.426,248.102 84.75,246.301 84.75,246C84.75,245.699 87.602,243.602 91.125,241.273L97.426,237L102.375,238.648C105.074,239.551 107.25,240.676 107.25,241.199C107.25,242.477 91.199,253.5 89.398,253.5C88.273,253.5 87.375,252.523 86.25,250.051ZM412.091,253.203L406.341,246.203L420.499,233.571C422.804,231.598 432,224.425 432,224.425C432,224.425 432.227,224.306 432.634,224.094C434.288,223.232 436.323,223.682 437.459,225.162C438.595,226.642 438.504,228.724 437.244,230.1C437.086,230.272 437,230.366 437,230.366C437,230.366 434.219,233.516 429.5,238C422.447,244.703 412.091,253.203 412.091,253.203ZM302.625,237.898C276.977,225.523 271.801,222.824 271.648,221.398C271.5,220.5 271.875,219.602 272.398,219.375C273.148,219.074 334.648,247.426 335.926,248.699C336.375,249.148 334.648,252.75 333.898,252.75C333.602,252.75 319.5,246.074 302.625,237.898ZM305.25,232.125C288.148,224.176 274.051,217.352 273.977,216.977C273.898,216.676 274.051,215.926 274.352,215.398C274.949,214.5 279.523,216.449 316.648,234.074C321.898,236.625 326.699,238.5 327.449,238.352C328.273,238.199 329.926,235.273 332.176,230.102C334.051,225.676 336,221.699 336.449,221.25C337.5,220.199 346.5,224.477 346.5,225.977C346.5,227.176 339.148,244.5 338.102,245.852C337.648,246.301 337.125,246.75 336.824,246.75C336.602,246.676 322.352,240.148 305.25,232.125ZM405.43,245.203L401.341,240.203L424,220.5L421,231.5L405.43,245.203ZM78.5,240C77.745,238.745 76.607,237.681 76.169,237.5C76.083,237.465 76.024,237.463 76,237.5C74.167,238.733 74.344,239.662 75.5,241C78.208,244.133 80.597,243.602 78.5,240ZM83.773,238.273C76.125,226.5 75.449,225.375 75.676,222.824C75.75,220.801 75.301,219.75 73.199,217.574C71.773,216.074 68.773,212.551 66.523,209.625C64.351,206.773 62.25,204.375 61.801,204.375C61.426,204.375 58.903,206.847 58.824,207.898C58.602,209.398 58.676,209.546 59.653,208.796C60.551,207.972 63.227,206.625 65.101,208.949C67.051,211.273 66.097,212.921 65.5,214.5C64.597,216.898 65.722,218.324 67.449,216.898C68.347,216.148 69.977,215.398 71.25,216.824C72.977,219 71.426,220.625 70,222.5C68.727,224.148 69.25,225.426 70.977,224.898C71.949,224.597 73.523,225.25 74.5,227.5C76.296,231.852 83.477,240.676 84.227,240.227C84.523,240 84.375,239.102 83.773,238.273ZM424.677,217L416.567,225.402L400.341,239.203L394,232L409.716,219.469L419.52,211.365C419.52,211.365 422.132,209.584 424.687,211.695C427.061,213.657 424.677,217 424.677,217ZM428.244,237.182L424.142,232.467C424.142,232.467 429.804,227.671 432.197,225.644C432.856,225.086 433.74,224.874 434.58,225.073C434.659,225.092 434.738,225.111 434.817,225.129C435.706,225.34 436.427,225.989 436.728,226.852C436.728,226.852 436.728,226.853 436.729,226.853C437.021,227.689 436.808,228.618 436.182,229.244C433.83,231.596 428.244,237.182 428.244,237.182ZM92.773,233.102C91.574,232.352 90.398,232.926 91,234.5C91.449,235.625 92.477,235.648 93,234.75C93.449,234.074 93.375,233.477 92.773,233.102ZM85.426,226.051C83.25,223.801 81.148,222 80.852,222C79.199,222 79.597,225.25 83.5,229C89.199,234.472 91.051,231.75 85.426,226.051ZM322.157,220.572C325.031,220.572 327.364,222.905 327.364,225.779C327.364,228.652 325.031,230.985 322.157,230.985C319.284,230.985 316.951,228.652 316.951,225.779C316.951,222.905 319.284,220.572 322.157,220.572ZM415.681,224.425L411.579,219.71C411.579,219.71 417.241,214.914 419.634,212.887C420.293,212.329 421.177,212.117 422.017,212.316C422.096,212.335 422.175,212.354 422.254,212.372C423.143,212.583 423.864,213.232 424.165,214.095C424.165,214.096 424.165,214.096 424.165,214.096C424.457,214.932 424.245,215.861 423.619,216.488C421.267,218.839 415.681,224.425 415.681,224.425ZM315,209.176C297.898,201.301 283.648,194.625 283.352,194.324C282.602,193.648 284.398,189 285.375,189C287.926,189 350.25,218.551 350.25,219.75C350.25,221.398 348.676,223.5 347.398,223.5C346.727,223.5 332.102,217.051 315,209.176ZM291.881,207C294.755,207 297.087,209.333 297.087,212.206C297.087,215.08 294.755,217.413 291.881,217.413C289.008,217.413 286.675,215.08 286.675,212.206C286.675,209.333 289.008,207 291.881,207ZM347.25,216C346.648,215.551 332.625,208.949 316.125,201.301C299.625,193.648 285.824,187.125 285.449,186.75C283.727,185.023 287.324,185.398 291.375,187.352C293.852,188.551 301.125,192 307.5,195C313.875,198 323.023,202.273 327.75,204.523C336.75,208.875 340.648,209.773 341.102,207.676C341.25,206.773 338.25,205.051 329.102,200.773C298.648,186.602 288.375,181.574 288.227,180.977C288.074,180.602 288.449,179.699 288.977,178.949C289.875,177.676 291.301,178.273 310.574,187.426C321.898,192.898 336.301,199.727 342.523,202.727C349.801,206.176 354,208.574 354,209.25C354,211.051 350.699,216.375 349.5,216.523C348.898,216.602 347.852,216.375 347.25,216ZM362.187,146.618C360.178,151.346 356.922,159.106 353.324,167.773C347.102,182.625 342.75,193.949 343.051,194.625C343.273,195.375 344.176,195.75 345.074,195.602C346.5,195.375 347.926,191.773 355.875,168.75C360.424,155.709 362.971,148.124 364.051,144.404L364,144L362.187,146.618ZM130.875,182.773L164.852,156.676L145.727,132.75C145.727,132.75 112.125,156.847 111,158.5C110.699,158.949 130.875,182.773 130.875,182.773ZM131.134,180.5L113,159L145.5,135.5L162.5,156.5L131.134,180.5ZM38.5,178.5L40,180.353L42,175.5L40.5,173.667L38.5,178.5ZM36,174.5L37,176.343L39.21,171.449L38,169.657L36,174.5ZM34.598,165.125L32.5,170.5L34,172.5L36.197,167.5L34.598,165.125ZM366.537,152.206L365.879,153.757L365.371,154.966L365.778,158.225L358.5,171.449L360.791,165.93L362.881,160.91L364.325,157.454L365.371,154.966L365.37,154.964L365.879,153.757L366.39,152.551L366.537,152.206L366.712,151.794C366.882,151.396 367.052,150.997 367.222,150.599L366.537,152.206ZM29.741,162.25C29.319,162.25 28.965,162.567 28.918,162.986C28.845,163.643 28.75,164.5 28.75,164.5L31,168L32.75,162.75L31.75,162.25L29.741,162.25ZM139.426,166.949C140.176,166.051 138.676,165.375 130.425,162.75C121.875,160.051 120.301,159.75 118.727,160.574C117.824,161.102 117.074,161.625 117.227,161.699C117.824,162.301 135.602,167.926 136.949,167.926C137.852,168 138.977,167.551 139.426,166.949ZM144.676,163.199C145.426,162.301 143.926,161.625 136.051,159C128.022,156.301 126.301,155.926 124.727,156.676C123.676,157.199 123.074,157.801 123.301,158.102C124.125,158.852 140.324,164.102 142.199,164.176C143.102,164.25 144.227,163.801 144.676,163.199ZM148.801,160.051C151.125,159.148 149.926,157.727 145.727,156.375C129.977,151.352 130.647,151.5 128.852,152.926C127.273,154.273 127.352,154.352 136.574,157.352C146.551,160.648 147,160.727 148.801,160.051ZM154.875,155.699C156.227,154.727 155.398,154.352 146.398,151.5C137.551,148.648 136.199,148.426 134.398,149.25C132.449,150.148 132.75,150.375 141.75,153.375C152.551,157.051 153,157.125 154.875,155.699ZM80.852,130.875C80.295,129.254 78.633,120.496 78.523,119.852C78.375,118.875 78.125,118.727 78.125,120.375C78.103,120.84 79,127 79,127C79,127 79.681,131.198 80.699,134.398C82.5,140.176 86.926,149.852 88.648,152.102C89.551,153.148 90.75,153.301 90.75,152.324C90.75,152.023 89.023,148.352 86.852,144.301C84.676,140.25 81.977,134.176 80.852,130.875ZM151.125,147.75C152.102,146.625 152.25,145.949 151.727,145.426C151.125,144.824 150.148,145.273 148.426,146.926L145.875,149.176L147.824,149.25C148.875,149.25 150.375,148.574 151.125,147.75ZM370.151,144.748L370.064,145.108L369.95,145.524L369.8,146.041L369.656,146.52L369.369,147.443L369.137,148.172L368.978,148.663L369.227,147.885L369.511,146.979L369.703,146.357L370.007,145.305L370.151,144.748ZM369.262,145.967L369.583,145.288L369.817,144.823L370.049,144.413L370.07,144.385L370.084,144.361L370.147,144.285L370.169,144.267L370.176,144.263L370.182,144.261L370.186,144.26L370.188,144.26L370.19,144.26L370.185,144.26L370.177,144.263L370.168,144.268L370.147,144.285C370.147,144.285 370.07,144.385 370.07,144.385L369.78,144.896L369.532,145.396L369.176,146.158L368.491,147.676L369.044,146.442L369.262,145.967ZM146.477,145.426C147.977,144.148 149.25,142.648 149.25,142.051C149.25,140.551 148.875,140.699 144.75,143.773C142.199,145.648 141.301,146.699 141.977,147.148C143.324,147.977 143.398,147.977 146.477,145.426ZM341.852,132.605C341.888,132.898 340.062,138.4 337.333,146.286L337,147L336.035,144.982L341.852,132.602L341.852,132.605ZM370.194,144.26L370.196,144.261L370.198,144.262L370.2,144.263L370.204,144.267L370.207,144.27L370.21,144.276L370.211,144.277L370.211,144.278L370.213,144.284L370.214,144.286L370.215,144.291L370.218,144.309L370.218,144.313L370.218,144.318L370.218,144.374L370.218,144.313L370.214,144.286L370.211,144.277L370.206,144.269L370.196,144.261L370.191,144.26L370.194,144.26ZM324.824,123.75C324.826,123.75 324.828,123.75 324.83,123.75C324.838,123.751 324.846,123.753 324.853,123.757C324.859,123.76 324.865,123.764 324.869,123.768C324.876,123.775 324.882,123.782 324.887,123.79C324.894,123.803 324.899,123.817 324.903,123.83C324.91,123.853 324.914,123.877 324.916,123.9C324.921,123.941 324.921,123.982 324.92,124.023C324.919,124.092 324.913,124.161 324.905,124.23C324.891,124.344 324.872,124.458 324.851,124.572C324.814,124.771 324.769,124.97 324.721,125.167C324.637,125.509 324.544,125.848 324.446,126.185C324.274,126.773 324.088,127.357 323.894,127.938L323.884,127.967L318,139L317.804,138.641L324.824,123.75ZM352.74,138.365L352.939,137.927L353.275,137.205L353.447,136.846L353.684,136.384L353.728,136.311L353.729,136.31L353.73,136.309C353.74,136.293 353.749,136.282 353.755,136.276L353.756,136.275C353.757,136.274 353.759,136.272 353.761,136.271L353.762,136.27C353.76,136.271 353.758,136.273 353.755,136.276L353.729,136.31L353.578,136.597L353.336,137.083L352.886,138.044L352.74,138.365ZM320.009,133.658L320.231,133.16L320.882,131.712L321.27,130.857L321.963,129.341L322.634,127.898L323.152,126.805L323.379,126.334L323.515,126.063L323.832,125.416L324.178,124.744L324.409,124.322C324.519,124.13 324.609,123.984 324.68,123.888L324.408,124.324C324.408,124.324 324.172,124.756 324.172,124.756L323.515,126.063L323.252,126.6L322.859,127.425L322.5,128.185L321.887,129.507L321.075,131.289L320.138,133.368L320.009,133.658ZM316.949,126.227C316.95,126.228 316.95,126.229 316.951,126.23L316.95,126.229L316.949,126.227ZM324.795,123.761C324.802,123.756 324.809,123.753 324.817,123.751L324.822,123.75L324.823,123.75L324.817,123.751C324.81,123.752 324.803,123.756 324.795,123.761L324.754,123.796L324.79,123.764L324.795,123.761ZM249.977,85.949C248.176,83.551 246,83.25 228.602,83.25C214.199,83.25 213.824,83.324 212.699,84.898C212.023,85.801 211.5,86.852 211.5,87.148C211.5,87.523 220.426,87.75 231.375,87.75L251.324,87.75L249.977,85.949ZM253.051,79.352C253.273,78.375 253.648,74.773 253.875,71.324C255.074,55.801 258.523,42.602 261.601,41.852C263.699,41.25 274.426,42.676 281.25,44.324C291.824,46.949 304.273,52.426 312.676,58.051C317.324,61.199 318.602,61.574 315.375,58.875C301.426,47.102 283.574,39.676 265.125,37.875L259.801,37.352L257.851,41.398C254.625,47.926 251.25,63.375 251.25,71.477C251.25,73.352 251.023,75.824 250.801,77.102L250.352,79.352L232.199,80.023L214.125,80.773L233.398,80.852L252.75,81L253.051,79.352ZM223.5,66.75C223.5,60.074 223.5,60 221.625,60C219.75,60 219.75,60.074 219.75,66.75C219.75,73.426 219.75,73.5 221.625,73.5C223.5,73.5 223.5,73.426 223.5,66.75ZM212.926,58.648C208.426,43.574 186.824,38.324 175.801,49.574C172.352,53.102 172.801,53.324 177.148,50.25C181.273,47.398 188.852,45.449 193.426,46.125C200.699,47.102 208.875,53.023 212.023,59.625C213.602,63 214.125,62.477 212.926,58.648ZM327.75,60.074C327.75,59.699 324.977,55.727 321.602,51.301C307.426,32.477 299.477,24.602 286.273,16.5C276.449,10.5 271.426,8.023 265.125,6.148C255.301,3.301 252.148,3 232.352,3L212.773,3L209.773,5.699C203.477,11.398 193.949,13.949 186.227,12C184.199,11.551 180.75,10.199 178.352,9C174.676,7.125 174.074,6.977 173.699,8.023C173.176,9.301 173.625,9.75 177.75,11.926C189.074,17.852 200.926,16.727 210.148,8.926L213.676,6L233.102,6C250.051,6 253.273,6.227 258.375,7.5C269.852,10.426 284.477,18.227 297.074,28.125C304.727,34.125 319.125,48.824 323.625,55.352C327.523,60.898 327.75,61.199 327.75,60.074ZM168.75,56.25C168.75,55.273 142.5,55.273 141,56.25C140.25,56.699 144.75,57 154.352,57C163.426,57 168.75,56.699 168.75,56.25ZM140.324,32.25C140.324,24.602 139.949,17.176 139.574,15.75C139.125,13.949 138.898,19.273 138.898,32.25C138.898,46.574 139.125,50.699 139.648,48.75C140.102,47.324 140.398,39.898 140.324,32.25ZM163.051,46.051C166.051,45.602 166.574,45.301 166.352,43.949C166.125,42.449 165.676,42.375 155.477,42.148C149.551,42.074 144.75,42.227 144.75,42.523C144.75,42.898 144.523,43.875 144.301,44.852C143.852,46.5 143.926,46.5 151.648,46.5C156,46.5 161.102,46.273 163.051,46.051ZM168.75,4.5C168.75,4.051 164.926,3.75 158.852,3.75C153.375,3.75 146.625,3.523 143.773,3.227C139.273,2.852 138.75,2.926 139.199,4.051C139.574,5.102 141.375,5.25 154.199,5.25C163.426,5.25 168.75,4.949 168.75,4.5Z"/>
        </g>
    </g>
</svg>
