<svg width="100%" height="100%" viewBox="0 0 2800 474" version="1.1" xmlns="http://www.w3.org/2000/svg" xmlns:xlink="http://www.w3.org/1999/xlink" xml:space="preserve" xmlns:serif="http://www.serif.com/" style="fill-rule:evenodd;clip-rule:evenodd;stroke-linejoin:round;stroke-miterlimit:2;">
    <g id="Artboard1" transform="matrix(1,0,0,0.473758,0,0)">
        <rect x="0" y="0" width="2800" height="1000" style="fill:none;"/>
        <g transform="matrix(1,0,0,2.11078,-404.853,-221.218)">
            <text x="450.739px" y="489.804px" style="font-family:'Montserrat';font-size:300px;">V<tspan x="655.639px " y="489.804px ">I</tspan>NC<tspan x="1205.24px " y="489.804px ">U</tspan>L</text>
            <text x="1615.34px" y="489.804px" style="font-family:'Montserrat';font-size:300px;fill-opacity:0;">O</text>
            <text x="1867.04px" y="489.804px" style="font-family:'Montserrat';font-size:300px;">BJETI<tspan x="2704.64px " y="489.804px ">V</tspan></text>
        </g>
        <g transform="matrix(1,0,0,2.11078,-4.46206,-478.726)">
            <path d="M1240.25,500L1258.58,500C1258.58,550.011 1299.92,590.614 1349.93,590.614C1399.94,590.614 1442.02,550.011 1442.02,500L1458.25,500C1458.25,561.081 1411.01,610.67 1349.93,610.67C1288.85,610.67 1240.25,561.081 1240.25,500Z"/>
        </g>
        <g transform="matrix(0.504202,0,0,1.06426,1230.03,196.725)">
            <path d="M353.774,136.29L353.769,136.33L353.664,136.756L353.486,137.365L353.333,137.869L352.921,139.181L352.385,140.847L351.918,142.276L351.516,143.498L351.028,144.968L350.458,146.677L353.086,152.65C346.693,167.807 337.5,190.409 337.5,191.398C337.5,192.523 338.477,193.273 340.125,193.426C340.574,193.5 345.074,181.352 350.176,166.426L354.079,154.907L353.086,152.65C356.391,144.817 358.947,138.972 359.102,139.125L354.077,154.914L354.079,154.907L355,157L362.187,146.618L363.218,144.204L363.669,143.161L364.097,142.189C364.186,141.99 364.244,141.87 364.266,141.834L364.272,141.826L364.273,141.824L364.272,141.826L364.266,141.834L364.087,142.211L363.322,143.965L362.996,144.725L362.187,146.618L364.272,141.826L364.42,141.638C364.438,141.618 364.457,141.598 364.477,141.58C364.493,141.564 364.511,141.549 364.529,141.537C364.541,141.529 364.553,141.522 364.566,141.517C364.575,141.513 364.585,141.511 364.595,141.51C364.6,141.51 364.605,141.511 364.609,141.512C364.612,141.512 364.615,141.513 364.618,141.514C364.639,141.523 364.651,141.545 364.658,141.565L364.67,141.614L364.675,141.733L364.633,142.098L364.565,142.449C364.514,142.685 364.457,142.919 364.396,143.153C364.289,143.569 364.173,143.983 364.053,144.396L364.051,144.404L365.37,154.964L364.294,157.527L363.17,160.215L361.817,163.462L360.587,166.422L358.5,171.449C350.25,191.324 348.148,196.949 348.898,197.773C349.352,198.375 350.25,198.75 350.852,198.602C351.523,198.449 355.051,189.227 360.75,172.875C362.732,167.122 364.41,162.241 365.778,158.225L366.971,154.708L367.607,152.813L368.392,150.451L368.739,149.399L368.589,149.862L368.392,150.451L368.072,151.424L367.079,154.387L366.726,155.432L365.778,158.225L366.874,166.991L354,198.977L354,199.003C354.016,200.114 355.064,200.853 356.773,200.926C357.227,201 358.801,197.551 360.227,193.352C361.38,189.882 364.412,181.132 367.518,172.147L366.874,166.99L375.824,146.551C376.199,146.398 373.352,155.102 369.676,165.898C368.968,167.951 368.241,170.055 367.518,172.147L368,176L377,167C377,167 381.375,192.523 381.523,192.676C381.676,192.898 391.5,183.75 392.023,183.75C393,183.75 395.773,204.676 396.074,205.051C396.375,205.352 406.949,198 406.949,198L408.395,218.505L392.841,231.203L386.746,223.251L383,227L386,231C386,231 385.674,231.034 383.5,233L376,239.5L366.5,265.5L379,280C379,280 402.53,272.179 405,271C405.636,270.696 414,264 414,264L417,267L421,263L412.841,254.203L423.596,246L430,243.5C430,243.5 426,262.423 426,262.5C426,262.727 440.699,254.551 440.852,254.926C441,255.301 434.699,280.426 435.148,280.875C435.375,281.102 448.051,276.75 448.199,276.977C448.426,277.199 442.199,300.523 442.574,300.602C442.949,300.75 454.727,298.5 454.875,298.648C455.023,298.727 444,322.125 444,322.352C444,322.5 456.75,321.898 456.75,322.273C456.75,322.648 443.25,343.426 443.25,343.875C443.25,344.551 457.875,344.102 457.875,344.102L444.375,356.926L225.824,357L7.352,357L7.801,355.352C8.102,354.375 8.477,352.574 8.773,351.227L9.148,348.824L0,347.477L9,332L2.773,329.477C2.773,329.477 4.727,325.199 7.574,320.773C10.426,316.273 12.75,312.375 12.75,312.074C12.75,311.738 3.449,309.074 3.449,309.074L15,292L6.75,287.773L21.148,272.398L13.5,268.051C13.5,268.051 20.625,260.699 28.426,254.477L30.227,253.051L21.227,247.051C21.227,247.051 42,232.199 42,232.125C42,231.977 33.145,226 33.145,226C33.145,226 47.773,216.602 51.523,214.648C55.352,212.699 58.5,210.824 58.5,210.449C58.5,210.074 57,208.5 55.125,206.852C52.5,204.523 51.824,203.477 52.199,202.199C52.426,201.074 51.824,199.574 50.102,197.25C48.676,195.375 44.551,189.523 40.875,184.125C37.199,178.801 32.773,172.352 30.977,169.949C28.426,166.574 27.75,164.926 27.898,163.199C28.125,161.176 28.352,160.875 30.227,161.023C33.148,161.25 33.977,162.074 39.227,169.875C43.727,176.625 54.301,190.875 58.352,195.676L60.523,198.227L67.199,196.5C70.875,195.523 74.023,194.625 74.176,194.551C74.324,194.398 72.898,192.602 70.949,190.426C69.074,188.324 67.5,185.625 67.5,185.625L88.199,180C88.199,180 84.227,170.852 79.051,167.852C76.801,166.648 75,165.301 75,165C75,164.625 77.551,162.449 80.625,160.125C83.699,157.801 86.398,155.625 86.551,155.324C86.773,155.023 85.648,152.25 84,149.176C79.803,141.074 77.376,134.282 75.912,126C75.519,123.775 75.196,121.443 74.926,118.949C73.875,108.375 74.477,103.5 77.176,100.574C78.602,99.074 79.801,98.477 80.699,98.699C81.523,98.926 87.523,106.352 94.125,115.125L106.125,131.25L112.801,131.25C119.102,131.25 119.551,131.102 122.551,128.852C130.125,123.074 130.5,122.477 130.5,116.773L130.5,111.676L117.898,93.898C102.375,72.074 102.75,72.602 102.75,71.551C102.75,70.051 109.949,68.852 121.5,68.477C134.699,67.949 138.523,68.773 149.852,74.477C169.801,84.449 178.574,98.25 180.375,122.324L180.898,128.852L185.25,130.801C187.574,131.852 189.824,132.75 190.125,132.75C190.426,132.75 190.495,121 190.495,121C190.495,121 205.125,126.824 206.926,127.574L210.227,129.074L209.773,116.852C209.477,110.102 208.648,101.176 207.898,96.898L206.477,89.176L209.023,85.875C211.801,82.125 212.102,79.574 210.75,67.199C209.926,59.477 208.199,56.176 203.102,52.648C198.75,49.727 194.773,48.523 189.375,48.449C183.676,48.449 179.926,50.324 175.273,55.5L171.898,59.25L155.023,59.25C145.727,59.25 137.625,59.023 136.949,58.801C135.898,58.426 135.75,55.273 135.75,31.801C135.75,14.176 136.051,4.727 136.574,3.523C137.625,1.199 141.449,0.75 158.398,0.75L170.324,0.75L174.227,3.75C180.523,8.477 184.727,10.051 191.25,10.051C198.227,10.051 203.477,8.102 209.25,3.375L213.375,0L230.625,0C253.574,0 262.727,1.648 276.375,8.398C298.801,19.426 318.977,40.5 335.477,70.125C340.426,79.125 341.023,80.852 339.449,81.449C338.699,81.75 336.375,80.176 332.852,76.875C311.551,57.375 290.023,46.5 269.773,45.227C260.851,44.699 260.101,45.148 258.449,52.426C257.25,57.824 255.375,70.949 254.625,78.898L254.176,84L257.176,87.227L260.176,90.449L258.75,100.5C257.023,112.352 257,127 257,127L264,113L279,131L285,115L298,133L306,117L314.143,131.928L314.147,131.92C314.583,130.984 314.977,130.144 315.323,129.416L316.014,127.977L316.487,127.023C316.593,126.814 316.682,126.645 316.753,126.517L316.91,126.258C316.918,126.246 316.926,126.238 316.932,126.232L316.935,126.23L316.938,126.228L316.942,126.226L316.94,126.227L316.932,126.232L316.91,126.258L316.753,126.517L316.462,127.072L315.967,128.074L315.323,129.416L314.143,131.929C312.211,136.079 309.458,142.133 306.449,148.875C297.977,167.773 296.324,172.051 297.074,172.949C297.602,173.551 298.5,174 299.102,173.852C299.773,173.699 303.227,165.227 308.699,150.074C311.116,143.441 313.258,137.396 314.754,133.05L314.143,131.929L316.949,126.227L316.946,126.226L316.944,126.225L316.946,126.226L316.948,126.226L316.949,126.227L314.754,133.05L315.621,130.509L316.362,128.268L316.606,127.507L316.894,126.54L316.954,126.251L316.953,126.236C316.953,126.24 316.954,126.245 316.954,126.251L316.954,126.251C316.953,126.295 316.932,126.392 316.894,126.54L316.703,127.199L316.455,127.986L316.146,128.938L315.612,130.535L314.754,133.05L317.804,138.641L319.194,135.486L319.285,135.282L317.804,138.641C311.16,153.797 302.262,175.178 302.551,175.949C303.227,177.75 305.773,177.148 306.602,174.977C307.273,172.949 318.602,142.273 323.176,129.977C323.436,129.273 323.673,128.597 323.884,127.967L326,124L328.785,129.823C323.683,140.361 307.484,177.846 307.875,178.5C308.102,178.949 309.074,179.25 309.977,179.25C311.477,179.25 312.602,176.773 321,153.676C325.451,141.499 327.96,134.673 329.312,130.924L328.785,129.823C329.534,128.274 330.044,127.308 330.227,127.125C330.765,126.587 331.331,125.321 329.312,130.924L332.619,137.84C330.574,142.369 327.671,148.971 323.699,158.102C315.301,177.301 313.574,181.801 314.324,182.699C314.852,183.301 315.75,183.75 316.352,183.602C317.102,183.449 320.852,174.074 327.074,156.75L333.353,139.398L333.358,139.385L332.619,137.84C335.48,131.506 336.664,129.226 336.75,129.75L333.352,139.403L333.358,139.385L336.035,144.983L330.523,157.648L330.055,158.74C320.373,181.341 319.593,183.463 320.773,184.352C321.449,184.875 322.426,185.176 322.801,185.023C323.25,184.875 327.75,173.176 332.852,159.074C334.484,154.467 336.014,150.098 337.333,146.286L344,132L345.99,136.522C327.439,180.849 325.354,186.077 326.324,187.199C326.852,187.801 327.75,188.25 328.352,188.102C329.023,187.949 332.773,178.199 338.699,160.949C342.059,151.172 344.963,142.532 346.51,137.706L345.99,136.522L346.157,136.126C346.822,134.59 347.48,133.502 347.699,133.648C347.751,133.726 347.313,135.203 346.51,137.706L349.763,145.098L350.222,144.042L351.13,141.97L351.512,141.104C351.818,140.412 352.098,139.783 352.349,139.226L352.406,139.101L351.477,141.183L350.679,143.002L349.763,145.098C347.794,149.628 345.258,155.563 342.523,162.074C333.898,182.773 331.727,188.699 332.398,189.523C332.852,190.125 333.75,190.5 334.352,190.352C335.023,190.199 338.699,180.824 344.699,163.5C346.895,157.204 348.897,151.339 350.458,146.677L349.763,145.098L353.773,136.273L350.458,146.677L351.291,144.174L351.693,142.957L352.176,141.484L352.513,140.45L352.952,139.083C352.952,139.083 353.486,137.365 353.486,137.365L353.575,137.06L353.769,136.33L353.774,136.29L353.774,136.278L353.774,136.276L353.774,136.277L353.774,136.28L353.774,136.29ZM361,270C362.253,268.161 363,267 363,267C363,267 371.25,244.801 371.25,244.352C371.25,243.449 365.176,236.023 359.477,230.023L355.352,225.75L353.324,226.949C351.676,227.926 350.25,230.625 346.574,239.176C344.023,245.176 342,250.875 342,251.773C342,252.676 341.023,254.625 339.75,255.977C338.477,257.399 337.5,259.426 337.5,260.477C337.5,261.524 336.676,263.324 335.625,264.449C334.648,265.5 333.602,267 333.375,267.75C333.148,268.574 331.574,269.398 329.398,270C323.699,271.5 316.926,274.375 311,280C309.781,281.16 306.3,284.958 304,288C300.546,292.567 298.051,297.977 298.051,297.977C297.602,298.426 273.75,352.875 273.75,353.398C273.75,353.773 277.727,354 282.602,354L291.523,354L303.977,348C310.875,344.699 355.352,326.324 368.25,323.176C382.125,319.875 385.125,318.602 387.148,315.375C389.477,311.477 388.273,305.625 384.676,303.676C382.051,302.324 375,302.852 368.25,304.949C364.727,306 358.875,307.727 355.125,308.699C350.628,309.941 344.28,308.787 343.259,308.5C341.181,307.916 338.471,304.378 338,303.5C336.11,299.979 335.692,291.995 348,284.5C349.933,283.323 358.5,278.5 358.5,278.5L356.5,276L358,274.5L367.156,285.016C366.613,285.387 365.82,286 365.82,286L363,283.075C363,283.075 362.758,282.968 362.688,283C355.253,286.411 347.96,291.41 346,293C343.75,294.722 342.375,298.648 343.574,300.898C344.023,301.727 345.375,302.773 346.648,303.375C349.125,304.352 351.375,303.898 370.5,298.574C380.324,295.801 385.727,296.551 390.227,301.273C395.625,306.977 394.5,318.523 388.199,322.426C386.926,323.25 377.699,326.324 367.875,329.176C357.977,332.102 317.25,348.074 317.25,348.074C317.25,348.074 304.875,354 311.477,354L411.898,354L411.449,351.227C411.227,349.648 410.852,345.676 410.625,342.375C409.273,324.449 405.375,308.699 398.102,291.602C394.727,283.727 393,282 393,282L380,285.5L374.017,280.786C374.017,280.786 372.754,281.433 371,282.5L361,270ZM134.102,334.801C148.801,324.227 161.176,315.301 161.477,315C161.852,314.699 161.25,314.25 160.199,314.102C158.625,313.801 153.375,317.176 131.102,333.148C116.102,343.875 103.574,352.949 103.199,353.324C102.75,353.699 103.352,354 104.926,354C106.875,354 112.199,350.477 134.102,334.801ZM272.176,351.977C272.699,350.773 277.801,338.699 283.5,324.977C289.273,311.324 295.125,297.75 296.551,294.977C301.801,284.398 310.801,275.551 321.148,270.602C323.926,269.25 326.25,267.898 326.25,267.602C326.25,266.324 322.199,267.148 317.773,269.324C306.898,274.801 299.926,281.25 294.824,290.551C292.727,294.449 272.25,342.074 267.977,353.102C267.75,353.625 268.273,354 269.398,354C270.676,354 271.574,353.398 272.176,351.977ZM153.5,291.5L156.777,297.955L156.812,297.917C156.611,298.768 157.274,299.131 158.625,299.477C160.801,300 170.699,300.074 171.148,299.551C171.602,299.102 167.5,286 167.5,286L163.342,274.197C163.086,272.667 159.418,260.405 154.875,245.926C148.352,224.926 145.199,216.148 142.125,210.074C139.949,205.648 137.625,201.676 137.023,201.148C134.773,199.273 111.375,216.301 99.523,228.602L95.852,232.352L99.148,233.551C100.875,234.148 104.25,235.426 106.574,236.25C110.699,237.75 110.773,237.898 118.574,249.375C125.773,260.024 126.602,261 129,261.375C130.425,261.676 132.301,261.977 133.125,262.125C134.176,262.352 137.551,266.699 142.801,274.5L150.898,286.574L151,286.754L152.75,290.148C152.75,290.148 146.991,293.857 137.926,300.523C127.426,308.324 114.676,317.023 108.523,320.625C104.25,323.102 104.023,322.949 98.926,315.523C97.199,312.977 93.602,307.727 90.977,303.898L86.102,296.926L87.227,291.148L88.426,285.375L81.676,275.102C78,269.398 74.773,264.227 74.551,263.625C74.25,263.023 73.875,262.5 73.574,262.5C73.273,262.5 71.176,266.102 68.852,270.602C57.375,292.426 49.875,320.023 48.227,346.199L47.773,354L67.949,354L88.125,353.926L90.449,350.773C91.801,349.051 95.773,343.801 99.375,339.074C104.773,332.102 106.051,329.852 106.352,327.227C106.648,324.449 107.176,323.699 110.551,321.148C114.75,317.926 129.375,307.801 141.977,299.398C145.979,296.682 153.5,291.5 153.5,291.5ZM230.25,352.273C230.25,350.625 174.227,194.324 172.875,192.301C171.148,189.602 165.602,187.273 162.523,187.949C158.25,188.852 155.926,190.5 154.426,193.727C151.949,199.273 151.352,196.727 168.375,249.375C172.648,262.574 180.523,287.176 185.926,304.051C193.949,329.324 195.977,335.023 197.625,336.676C198.977,337.875 199.574,338.176 199.273,337.426C194.25,322.648 155.25,200.023 155.25,198.824C155.25,196.574 157.125,193.051 159.148,191.699C161.699,189.898 167.176,190.199 169.648,192.227C171.375,193.648 176.176,206.398 200.324,273.602C216.074,317.398 229.273,353.25 229.648,353.25C229.949,353.25 230.25,352.801 230.25,352.273ZM103.875,342.676C111.676,331.727 112.125,330.977 112.801,327.676C113.176,326.102 117,323.023 130.875,313.273C140.551,306.449 149.176,300.449 150.074,299.926C151.574,299.176 152.023,299.398 154.051,301.801C156.375,304.5 156.449,304.574 163.801,305.176C170.773,305.773 171.375,305.926 173.023,307.949C174.074,309.148 181.273,319.727 189.148,331.5C201.898,350.551 205.5,355.199 205.5,352.574C205.5,351.75 172.801,304.051 171.824,303.449C171.523,303.227 168.074,302.852 164.176,302.551C157.125,302.023 157.125,302.023 153.977,298.875L150.75,295.727L133.273,307.875C123.602,314.551 114.523,320.699 113.102,321.602C110.477,323.25 109.5,324.977 109.5,328.273C109.5,329.176 106.352,334.352 102.449,339.676C98.551,345 94.801,350.25 94.051,351.301C92.852,353.176 92.852,353.25 94.574,353.176C96,353.176 97.949,351 103.875,342.676ZM240.227,352.051C240,351.074 226.125,312.898 210.602,270.75C205.875,257.852 191.699,217.125 182.625,190.5L175.574,169.875L174.676,158.625C173.852,147.898 173.926,147 175.574,139.125C177.898,128.324 177.898,117 175.574,108.375C172.875,98.324 170.398,94.051 162.75,86.023C156.977,79.949 154.801,78.227 149.699,75.75C141.148,71.477 134.625,70.199 121.5,70.199C113.023,70.199 110.023,70.426 108,71.398C105.449,72.602 105.676,72.602 115.125,72.227C131.477,71.477 143.324,74.023 152.102,80.023C159,84.75 167.625,94.574 171,101.551C175.648,111.227 176.25,117.074 174,131.102C172.949,137.852 172.125,146.551 171.898,153.75L171.602,165.375L175.125,176.625C177.074,182.852 182.699,198.824 187.648,212.25C192.602,225.676 201.375,250.273 207.074,267C215.102,290.023 233.852,342.602 237.602,352.352C237.977,353.477 240.449,353.176 240.227,352.051ZM252.375,313.574C265.949,287.023 267.75,283.051 269.699,275.25C272.25,264.75 270,247.727 265.125,240.301C263.102,237.148 263.102,238.648 265.051,244.574C269.102,256.801 269.477,269.25 266.102,279.75C265.051,283.051 258.523,296.023 250.648,310.801C239.023,332.324 237.148,336.375 237.824,337.648C238.273,338.477 238.949,338.852 239.25,338.551C239.625,338.176 245.477,326.926 252.375,313.574ZM98.102,306.824C93.824,300.602 90.148,295.574 89.852,295.5C88.5,295.426 89.551,297.602 94.273,304.426C102.602,316.426 105.227,319.875 105.523,318.977C105.676,318.523 102.375,313.051 98.102,306.824ZM118.801,311.176C120.301,310.273 121.5,309.449 121.5,309.227C121.5,308.625 107.102,287.25 106.426,286.801C105.75,286.426 101.551,288.375 100.949,289.352C100.426,290.25 114.824,312.75 115.949,312.75C116.102,312.75 117.375,312.074 118.801,311.176ZM251.551,226.875C252.074,143.773 252.602,125.324 255,105.75C256.726,91.199 256.801,89.773 255.602,90.148C254.398,90.602 253.875,93.148 252.074,107.699C248.773,134.176 248.023,163.648 248.625,241.051C249.074,295.273 249.375,308.176 250.125,306.676C250.801,305.324 251.176,286.426 251.551,226.875ZM177.824,303.977C177.449,302.773 174.449,292.949 171.148,282C167.773,271.051 162.148,251.852 158.551,239.25C151.352,213.75 147.898,205.273 142.125,198.898C136.051,192.227 127.125,186.523 104.625,175.273C92.852,169.426 83.25,164.398 83.25,164.102C83.25,163.801 95.102,154.574 109.574,143.551C131.852,126.523 135.75,123.227 135.449,121.949C135.227,121.051 135,118.949 135,117.227C135,114.824 134.699,114 133.875,114C133.051,114 132.75,114.977 132.75,118.051C132.75,120.824 132.375,122.551 131.477,123.602C130.199,125.023 83.625,160.801 80.324,162.898C79.426,163.426 78.75,164.25 78.75,164.773C78.75,165.523 93.227,172.949 118.051,184.875C127.949,189.602 128.772,190.199 135.676,197.102C141,202.352 143.699,205.801 145.648,209.625C147.449,213.074 152.773,229.426 161.25,257.25C172.125,292.949 176.625,306 178.125,306C178.273,306 178.125,305.102 177.824,303.977ZM260.699,286.125C261.565,284.357 265.801,274.19 266,264C266.202,253.631 262.355,243.238 261.75,241.648C259.726,236.773 259.5,235.352 259.949,231.824C260.25,228.75 261,227.023 262.352,225.523C263.773,224.023 264.301,222.75 264.148,221.25C264,219.898 264.523,218.25 265.5,216.898C267.977,213.523 276,195 276,192.602C276,190.125 277.648,186.602 279.824,184.426C282.676,181.574 281.324,180.898 265.949,177.75C261.898,176.926 257.773,176.25 256.801,176.25L255,176.25L255,255.602L255.01,255.605L255.12,273C255.042,275.419 255,278.497 255,281.852C255.048,292.18 253.498,298.829 255,297C255.831,295.987 258.642,290.294 260.699,286.125ZM222,196.875L222,101.25L218.25,101.25L218.25,192.227C218.25,282.523 218.25,283.273 219.824,287.852C220.648,290.398 221.551,292.5 221.699,292.5C221.852,292.5 222,249.449 222,196.875ZM94.051,288.602C93.301,287.398 91.5,288.074 91.5,289.5C91.5,290.773 91.727,290.926 92.926,290.102C93.75,289.574 94.199,288.898 94.051,288.602ZM149.625,289.5C150.148,288.676 135.148,267 134.102,267C133.801,267 133.5,267.375 133.5,267.898C133.5,268.949 147.824,290.25 148.574,290.25C148.875,290.25 149.398,289.875 149.625,289.5ZM98.551,286.574C99.75,285.301 99.75,285.148 98.551,284.699C97.199,284.176 96,285.301 96,287.102C96,288.449 97.051,288.227 98.551,286.574ZM91.5,283.875C91.5,283.648 88.648,279.301 85.125,274.199C81.602,269.102 78.75,264.449 78.75,263.852C78.75,263.25 78.375,262.426 78,262.051C77.477,261.524 77.398,259.199 77.773,255.375C78.301,250.199 78.602,249.375 80.398,248.023C81.523,247.199 82.727,246.75 83.023,247.051C83.324,247.352 83.551,250.352 83.625,253.727C83.625,258.149 83.926,260.102 84.676,260.699C85.273,261.149 88.352,265.426 91.5,270.074C94.574,274.801 97.5,278.625 97.875,278.625C98.324,278.625 99.449,278.023 100.426,277.352L102.148,276.148L95.625,266.926C91.125,260.551 89.25,257.399 89.699,256.727C90.449,255.523 102.75,246.676 106.273,244.727C109.273,243.148 109.426,243.227 116.324,253.051C119.324,257.176 121.875,260.774 122.023,260.926C122.102,261.074 122.477,261 122.773,260.774C123.375,260.102 114,246.227 110.25,242.25C107.551,239.25 98.324,235.051 96.375,235.801C95.852,235.949 91.125,239.102 85.949,242.699L76.5,249.301L76.5,263.477L83.477,273.824C89.477,282.898 91.5,285.375 91.5,283.875ZM360,271.558L370,283C369.772,283.145 368.718,283.858 368.5,284L359,273.5C359.147,273.277 359.839,271.799 360,271.558ZM105.375,281.176C104.551,279.898 102.75,280.5 102.75,282C102.75,283.352 102.977,283.426 104.25,282.75C105.074,282.301 105.602,281.625 105.375,281.176ZM111,277.875C111.602,277.199 111.602,276.75 111.148,276.75C110.699,276.75 109.875,276.523 109.199,276.301C108.301,276 108,276.301 108,277.426C108,279.227 109.648,279.523 111,277.875ZM401.5,270L379,277L369,265.5L377.5,241.5L387,233L412,262L401.5,270ZM117.301,272.176C114.676,271.125 114,271.426 114,273.824L114,276.074L116.398,274.426C118.5,272.852 118.574,272.699 117.301,272.176ZM215,273C215.977,272.625 214.5,174 214.5,174C214.5,174 201.949,174.102 197,175C192.051,175.903 182.852,180.449 182.625,180.75C182.398,181.051 186,191.699 190.574,204.449C199.199,228.75 206.773,249.676 207.824,252.523C208.199,253.648 214.25,273.301 215,273ZM125.699,267.898C125.551,267.824 124.426,267.375 123.074,267C120.824,266.398 120.75,266.398 120.75,268.949L120.75,271.5L123.301,269.852C124.727,268.875 125.773,268.051 125.699,267.898ZM332.551,263.926C333.602,262.648 334.5,261.149 334.5,260.551C334.5,258.75 337.352,253.727 338.625,253.273C339.227,252.977 339.75,251.926 339.75,250.801C339.75,248.852 349.727,226.574 350.926,225.75C351.602,225.375 354,219.977 353.926,219.148C353.699,217.727 354.148,216.676 355.875,214.648C356.926,213.449 357.898,211.125 358.125,209.551L358.426,206.625L344.773,199.949C312.602,184.125 290.176,174 287.551,174C286.949,174 286.5,174.523 286.5,175.125C286.5,175.801 285.977,176.477 285.301,176.773C284.551,177 284.25,177.75 284.551,178.648C284.926,180.227 282.148,186.75 281.102,186.75C280.273,186.75 278.25,191.852 278.25,193.875C278.25,196.199 269.477,216.676 267.676,218.699C266.852,219.602 266.398,220.801 266.625,221.477C267.074,222.523 265.199,227.176 264,228C263.699,228.227 263.324,229.875 263.176,231.676L262.875,235.051L296.25,250.574C314.625,259.125 329.852,266.176 330.148,266.176C330.375,266.25 331.5,265.199 332.551,263.926ZM131.102,264.148C131.25,263.625 130.875,263.25 130.199,263.25C129.522,263.25 129,263.773 129,264.449C129,265.727 130.647,265.5 131.102,264.148ZM327,260.399C315.824,255.074 267.375,231.602 267.227,231.449C266.699,230.926 267.977,228.75 268.801,228.75C269.773,228.75 284.25,235.273 305.625,245.477C313.875,249.375 320.926,252.449 321.227,252.227C321.602,252 321.75,251.773 321.602,251.625C321.449,251.551 310.051,246.148 296.25,239.625C282.449,233.102 270.75,227.398 270.227,226.949C269.625,226.426 269.551,225.75 270,225C270.523,224.102 273.148,225.148 284.773,230.926C292.5,234.824 303.074,239.926 308.25,242.25C321,248.102 332.773,254.023 333.375,254.926C333.898,255.824 331.426,261.149 330.375,261.449C330,261.602 328.426,261.074 327,260.399ZM86.25,250.051C85.426,248.102 84.75,246.301 84.75,246C84.75,245.699 87.602,243.602 91.125,241.273L97.426,237L102.375,238.648C105.074,239.551 107.25,240.676 107.25,241.199C107.25,242.477 91.199,253.5 89.398,253.5C88.273,253.5 87.375,252.523 86.25,250.051ZM412.091,253.203L406.341,246.203L420.499,233.571C422.804,231.598 432,224.425 432,224.425C432,224.425 432.227,224.306 432.634,224.094C434.288,223.232 436.323,223.682 437.459,225.162C438.595,226.642 438.504,228.724 437.244,230.1C437.086,230.272 437,230.366 437,230.366C437,230.366 434.219,233.516 429.5,238C422.447,244.703 412.091,253.203 412.091,253.203ZM302.625,237.898C276.977,225.523 271.801,222.824 271.648,221.398C271.5,220.5 271.875,219.602 272.398,219.375C273.148,219.074 334.648,247.426 335.926,248.699C336.375,249.148 334.648,252.75 333.898,252.75C333.602,252.75 319.5,246.074 302.625,237.898ZM305.25,232.125C288.148,224.176 274.051,217.352 273.977,216.977C273.898,216.676 274.051,215.926 274.352,215.398C274.949,214.5 279.523,216.449 316.648,234.074C321.898,236.625 326.699,238.5 327.449,238.352C328.273,238.199 329.926,235.273 332.176,230.102C334.051,225.676 336,221.699 336.449,221.25C337.5,220.199 346.5,224.477 346.5,225.977C346.5,227.176 339.148,244.5 338.102,245.852C337.648,246.301 337.125,246.75 336.824,246.75C336.602,246.676 322.352,240.148 305.25,232.125ZM405.43,245.203L401.341,240.203L424,220.5L421,231.5L405.43,245.203ZM78.5,240C77.745,238.745 76.607,237.681 76.169,237.5C76.083,237.465 76.024,237.463 76,237.5C74.167,238.733 74.344,239.662 75.5,241C78.208,244.133 80.597,243.602 78.5,240ZM83.773,238.273C76.125,226.5 75.449,225.375 75.676,222.824C75.75,220.801 75.301,219.75 73.199,217.574C71.773,216.074 68.773,212.551 66.523,209.625C64.351,206.773 62.25,204.375 61.801,204.375C61.426,204.375 58.903,206.847 58.824,207.898C58.602,209.398 58.676,209.546 59.653,208.796C60.551,207.972 63.227,206.625 65.101,208.949C67.051,211.273 66.097,212.921 65.5,214.5C64.597,216.898 65.722,218.324 67.449,216.898C68.347,216.148 69.977,215.398 71.25,216.824C72.977,219 71.426,220.625 70,222.5C68.727,224.148 69.25,225.426 70.977,224.898C71.949,224.597 73.523,225.25 74.5,227.5C76.296,231.852 83.477,240.676 84.227,240.227C84.523,240 84.375,239.102 83.773,238.273ZM424.677,217L416.567,225.402L400.341,239.203L394,232L409.716,219.469L419.52,211.365C419.52,211.365 422.132,209.584 424.687,211.695C427.061,213.657 424.677,217 424.677,217ZM428.244,237.182L424.142,232.467C424.142,232.467 429.804,227.671 432.197,225.644C432.856,225.086 433.74,224.874 434.58,225.073C434.659,225.092 434.738,225.111 434.817,225.129C435.706,225.34 436.427,225.989 436.728,226.852C436.728,226.852 436.728,226.853 436.729,226.853C437.021,227.689 436.808,228.618 436.182,229.244C433.83,231.596 428.244,237.182 428.244,237.182ZM92.773,233.102C91.574,232.352 90.398,232.926 91,234.5C91.449,235.625 92.477,235.648 93,234.75C93.449,234.074 93.375,233.477 92.773,233.102ZM85.426,226.051C83.25,223.801 81.148,222 80.852,222C79.199,222 79.597,225.25 83.5,229C89.199,234.472 91.051,231.75 85.426,226.051ZM322.157,220.572C325.031,220.572 327.364,222.905 327.364,225.779C327.364,228.652 325.031,230.985 322.157,230.985C319.284,230.985 316.951,228.652 316.951,225.779C316.951,222.905 319.284,220.572 322.157,220.572ZM415.681,224.425L411.579,219.71C411.579,219.71 417.241,214.914 419.634,212.887C420.293,212.329 421.177,212.117 422.017,212.316C422.096,212.335 422.175,212.354 422.254,212.372C423.143,212.583 423.864,213.232 424.165,214.095C424.165,214.096 424.165,214.096 424.165,214.096C424.457,214.932 424.245,215.861 423.619,216.488C421.267,218.839 415.681,224.425 415.681,224.425ZM315,209.176C297.898,201.301 283.648,194.625 283.352,194.324C282.602,193.648 284.398,189 285.375,189C287.926,189 350.25,218.551 350.25,219.75C350.25,221.398 348.676,223.5 347.398,223.5C346.727,223.5 332.102,217.051 315,209.176ZM291.881,207C294.755,207 297.087,209.333 297.087,212.206C297.087,215.08 294.755,217.413 291.881,217.413C289.008,217.413 286.675,215.08 286.675,212.206C286.675,209.333 289.008,207 291.881,207ZM347.25,216C346.648,215.551 332.625,208.949 316.125,201.301C299.625,193.648 285.824,187.125 285.449,186.75C283.727,185.023 287.324,185.398 291.375,187.352C293.852,188.551 301.125,192 307.5,195C313.875,198 323.023,202.273 327.75,204.523C336.75,208.875 340.648,209.773 341.102,207.676C341.25,206.773 338.25,205.051 329.102,200.773C298.648,186.602 288.375,181.574 288.227,180.977C288.074,180.602 288.449,179.699 288.977,178.949C289.875,177.676 291.301,178.273 310.574,187.426C321.898,192.898 336.301,199.727 342.523,202.727C349.801,206.176 354,208.574 354,209.25C354,211.051 350.699,216.375 349.5,216.523C348.898,216.602 347.852,216.375 347.25,216ZM362.187,146.618C360.178,151.346 356.922,159.106 353.324,167.773C347.102,182.625 342.75,193.949 343.051,194.625C343.273,195.375 344.176,195.75 345.074,195.602C346.5,195.375 347.926,191.773 355.875,168.75C360.424,155.709 362.971,148.124 364.051,144.404L364,144L362.187,146.618ZM130.875,182.773L164.852,156.676L145.727,132.75C145.727,132.75 112.125,156.847 111,158.5C110.699,158.949 130.875,182.773 130.875,182.773ZM131.134,180.5L113,159L145.5,135.5L162.5,156.5L131.134,180.5ZM38.5,178.5L40,180.353L42,175.5L40.5,173.667L38.5,178.5ZM36,174.5L37,176.343L39.21,171.449L38,169.657L36,174.5ZM34.598,165.125L32.5,170.5L34,172.5L36.197,167.5L34.598,165.125ZM366.537,152.206L365.879,153.757L365.371,154.966L365.778,158.225L358.5,171.449L360.791,165.93L362.881,160.91L364.325,157.454L365.371,154.966L365.37,154.964L365.879,153.757L366.39,152.551L366.537,152.206L366.712,151.794C366.882,151.396 367.052,150.997 367.222,150.599L366.537,152.206ZM29.741,162.25C29.319,162.25 28.965,162.567 28.918,162.986C28.845,163.643 28.75,164.5 28.75,164.5L31,168L32.75,162.75L31.75,162.25L29.741,162.25ZM139.426,166.949C140.176,166.051 138.676,165.375 130.425,162.75C121.875,160.051 120.301,159.75 118.727,160.574C117.824,161.102 117.074,161.625 117.227,161.699C117.824,162.301 135.602,167.926 136.949,167.926C137.852,168 138.977,167.551 139.426,166.949ZM144.676,163.199C145.426,162.301 143.926,161.625 136.051,159C128.022,156.301 126.301,155.926 124.727,156.676C123.676,157.199 123.074,157.801 123.301,158.102C124.125,158.852 140.324,164.102 142.199,164.176C143.102,164.25 144.227,163.801 144.676,163.199ZM148.801,160.051C151.125,159.148 149.926,157.727 145.727,156.375C129.977,151.352 130.647,151.5 128.852,152.926C127.273,154.273 127.352,154.352 136.574,157.352C146.551,160.648 147,160.727 148.801,160.051ZM154.875,155.699C156.227,154.727 155.398,154.352 146.398,151.5C137.551,148.648 136.199,148.426 134.398,149.25C132.449,150.148 132.75,150.375 141.75,153.375C152.551,157.051 153,157.125 154.875,155.699ZM80.852,130.875C80.295,129.254 78.633,120.496 78.523,119.852C78.375,118.875 78.125,118.727 78.125,120.375C78.103,120.84 79,127 79,127C79,127 79.681,131.198 80.699,134.398C82.5,140.176 86.926,149.852 88.648,152.102C89.551,153.148 90.75,153.301 90.75,152.324C90.75,152.023 89.023,148.352 86.852,144.301C84.676,140.25 81.977,134.176 80.852,130.875ZM151.125,147.75C152.102,146.625 152.25,145.949 151.727,145.426C151.125,144.824 150.148,145.273 148.426,146.926L145.875,149.176L147.824,149.25C148.875,149.25 150.375,148.574 151.125,147.75ZM370.151,144.748L370.064,145.108L369.95,145.524L369.8,146.041L369.656,146.52L369.369,147.443L369.137,148.172L368.978,148.663L369.227,147.885L369.511,146.979L369.703,146.357L370.007,145.305L370.151,144.748ZM369.262,145.967L369.583,145.288L369.817,144.823L370.049,144.413L370.07,144.385L370.084,144.361L370.147,144.285L370.169,144.267L370.176,144.263L370.182,144.261L370.186,144.26L370.188,144.26L370.19,144.26L370.185,144.26L370.177,144.263L370.168,144.268L370.147,144.285C370.147,144.285 370.07,144.385 370.07,144.385L369.78,144.896L369.532,145.396L369.176,146.158L368.491,147.676L369.044,146.442L369.262,145.967ZM146.477,145.426C147.977,144.148 149.25,142.648 149.25,142.051C149.25,140.551 148.875,140.699 144.75,143.773C142.199,145.648 141.301,146.699 141.977,147.148C143.324,147.977 143.398,147.977 146.477,145.426ZM341.852,132.605C341.888,132.898 340.062,138.4 337.333,146.286L337,147L336.035,144.982L341.852,132.602L341.852,132.605ZM370.194,144.26L370.196,144.261L370.198,144.262L370.2,144.263L370.204,144.267L370.207,144.27L370.21,144.276L370.211,144.277L370.211,144.278L370.213,144.284L370.214,144.286L370.215,144.291L370.218,144.309L370.218,144.313L370.218,144.318L370.218,144.374L370.218,144.313L370.214,144.286L370.211,144.277L370.206,144.269L370.196,144.261L370.191,144.26L370.194,144.26ZM324.824,123.75C324.826,123.75 324.828,123.75 324.83,123.75C324.838,123.751 324.846,123.753 324.853,123.757C324.859,123.76 324.865,123.764 324.869,123.768C324.876,123.775 324.882,123.782 324.887,123.79C324.894,123.803 324.899,123.817 324.903,123.83C324.91,123.853 324.914,123.877 324.916,123.9C324.921,123.941 324.921,123.982 324.92,124.023C324.919,124.092 324.913,124.161 324.905,124.23C324.891,124.344 324.872,124.458 324.851,124.572C324.814,124.771 324.769,124.97 324.721,125.167C324.637,125.509 324.544,125.848 324.446,126.185C324.274,126.773 324.088,127.357 323.894,127.938L323.884,127.967L318,139L317.804,138.641L324.824,123.75ZM352.74,138.365L352.939,137.927L353.275,137.205L353.447,136.846L353.684,136.384L353.728,136.311L353.729,136.31L353.73,136.309C353.74,136.293 353.749,136.282 353.755,136.276L353.756,136.275C353.757,136.274 353.759,136.272 353.761,136.271L353.762,136.27C353.76,136.271 353.758,136.273 353.755,136.276L353.729,136.31L353.578,136.597L353.336,137.083L352.886,138.044L352.74,138.365ZM320.009,133.658L320.231,133.16L320.882,131.712L321.27,130.857L321.963,129.341L322.634,127.898L323.152,126.805L323.379,126.334L323.515,126.063L323.832,125.416L324.178,124.744L324.409,124.322C324.519,124.13 324.609,123.984 324.68,123.888L324.408,124.324C324.408,124.324 324.172,124.756 324.172,124.756L323.515,126.063L323.252,126.6L322.859,127.425L322.5,128.185L321.887,129.507L321.075,131.289L320.138,133.368L320.009,133.658ZM316.949,126.227C316.95,126.228 316.95,126.229 316.951,126.23L316.95,126.229L316.949,126.227ZM324.795,123.761C324.802,123.756 324.809,123.753 324.817,123.751L324.822,123.75L324.823,123.75L324.817,123.751C324.81,123.752 324.803,123.756 324.795,123.761L324.754,123.796L324.79,123.764L324.795,123.761ZM249.977,85.949C248.176,83.551 246,83.25 228.602,83.25C214.199,83.25 213.824,83.324 212.699,84.898C212.023,85.801 211.5,86.852 211.5,87.148C211.5,87.523 220.426,87.75 231.375,87.75L251.324,87.75L249.977,85.949ZM253.051,79.352C253.273,78.375 253.648,74.773 253.875,71.324C255.074,55.801 258.523,42.602 261.601,41.852C263.699,41.25 274.426,42.676 281.25,44.324C291.824,46.949 304.273,52.426 312.676,58.051C317.324,61.199 318.602,61.574 315.375,58.875C301.426,47.102 283.574,39.676 265.125,37.875L259.801,37.352L257.851,41.398C254.625,47.926 251.25,63.375 251.25,71.477C251.25,73.352 251.023,75.824 250.801,77.102L250.352,79.352L232.199,80.023L214.125,80.773L233.398,80.852L252.75,81L253.051,79.352ZM223.5,66.75C223.5,60.074 223.5,60 221.625,60C219.75,60 219.75,60.074 219.75,66.75C219.75,73.426 219.75,73.5 221.625,73.5C223.5,73.5 223.5,73.426 223.5,66.75ZM212.926,58.648C208.426,43.574 186.824,38.324 175.801,49.574C172.352,53.102 172.801,53.324 177.148,50.25C181.273,47.398 188.852,45.449 193.426,46.125C200.699,47.102 208.875,53.023 212.023,59.625C213.602,63 214.125,62.477 212.926,58.648ZM327.75,60.074C327.75,59.699 324.977,55.727 321.602,51.301C307.426,32.477 299.477,24.602 286.273,16.5C276.449,10.5 271.426,8.023 265.125,6.148C255.301,3.301 252.148,3 232.352,3L212.773,3L209.773,5.699C203.477,11.398 193.949,13.949 186.227,12C184.199,11.551 180.75,10.199 178.352,9C174.676,7.125 174.074,6.977 173.699,8.023C173.176,9.301 173.625,9.75 177.75,11.926C189.074,17.852 200.926,16.727 210.148,8.926L213.676,6L233.102,6C250.051,6 253.273,6.227 258.375,7.5C269.852,10.426 284.477,18.227 297.074,28.125C304.727,34.125 319.125,48.824 323.625,55.352C327.523,60.898 327.75,61.199 327.75,60.074ZM168.75,56.25C168.75,55.273 142.5,55.273 141,56.25C140.25,56.699 144.75,57 154.352,57C163.426,57 168.75,56.699 168.75,56.25ZM140.324,32.25C140.324,24.602 139.949,17.176 139.574,15.75C139.125,13.949 138.898,19.273 138.898,32.25C138.898,46.574 139.125,50.699 139.648,48.75C140.102,47.324 140.398,39.898 140.324,32.25ZM163.051,46.051C166.051,45.602 166.574,45.301 166.352,43.949C166.125,42.449 165.676,42.375 155.477,42.148C149.551,42.074 144.75,42.227 144.75,42.523C144.75,42.898 144.523,43.875 144.301,44.852C143.852,46.5 143.926,46.5 151.648,46.5C156,46.5 161.102,46.273 163.051,46.051ZM168.75,4.5C168.75,4.051 164.926,3.75 158.852,3.75C153.375,3.75 146.625,3.523 143.773,3.227C139.273,2.852 138.75,2.926 139.199,4.051C139.574,5.102 141.375,5.25 154.199,5.25C163.426,5.25 168.75,4.949 168.75,4.5Z"/>
        </g>
        <g transform="matrix(0.375211,0,0,0.79199,2468.66,287.108)">
            <path d="M449.261,532.512C449.507,532.778 450.464,534.404 451.426,536.25C454.426,541.875 457.199,546.977 459,550.125C459.977,551.773 461.625,554.852 462.75,556.875C463.875,558.977 465.523,561.977 466.5,563.625C467.477,565.273 469.199,568.426 470.398,570.602C471.523,572.699 473.477,576.301 474.602,578.477C475.801,580.574 477.523,583.727 478.5,585.375C480.301,588.523 483.074,593.625 486.074,599.25C487.051,601.125 488.023,602.773 488.25,603C488.699,603.449 490.051,605.773 492.898,611.102C494.023,613.199 496.051,616.875 497.25,619.125C498.523,621.375 500.477,625.051 501.602,627.227C502.801,629.324 504.523,632.477 505.5,634.125C506.477,635.773 507.977,638.477 508.801,640.125C509.699,641.773 510.523,643.273 510.75,643.5C510.977,643.727 511.727,645 512.477,646.352C513.823,648.75 513.823,648.898 512.477,649.875C511.727,650.477 510.523,651 509.852,651C509.176,651 507.824,651.301 506.852,651.676C505.875,652.051 503.625,652.727 501.75,653.25C499.875,653.773 497.699,654.449 496.875,654.75C496.051,655.125 494.398,655.574 493.125,655.875C491.926,656.102 489.523,656.625 487.875,657C486.227,657.375 483,658.051 480.75,658.5C478.5,659.023 475.125,659.699 473.25,660.148C471.375,660.523 467.699,661.199 465,661.574C462.301,661.949 457.574,662.625 454.5,663.074C448.426,663.977 396.602,664.875 395.852,664.125C395.625,663.824 392.398,663.301 388.727,662.926C376.051,661.5 372.148,660.824 355.352,657.074C353.551,656.625 351.148,656.102 349.875,655.875C348.676,655.574 346.949,655.125 346.125,654.75C345.301,654.449 343.125,653.773 341.25,653.25C339.375,652.727 337.125,652.051 336.148,651.676C335.176,651.301 333.824,651 333.148,651C332.477,651 331.273,650.477 330.523,649.875C329.176,648.898 329.176,648.75 330.523,646.352C331.273,645 332.023,643.727 332.25,643.5C332.477,643.273 333.375,641.699 334.352,639.977C335.25,638.176 336.75,635.324 337.727,633.602C338.625,631.801 339.523,630.227 339.75,630C339.977,629.773 340.949,628.125 341.926,626.25C342.898,624.375 344.699,621.074 345.824,618.977C347.023,616.801 348.977,613.199 350.102,611.102C351.301,608.926 353.023,605.852 353.852,604.352C354.75,602.773 356.25,600.227 357.148,598.727C357.977,597.148 359.699,594.074 360.898,591.977C362.023,589.801 363.977,586.199 365.102,584.102C366.301,581.926 368.023,578.773 369,577.125C369.977,575.477 371.625,572.477 372.75,570.375C373.875,568.352 375.523,565.273 376.5,563.625C378.301,560.477 381.074,555.375 384.074,549.75C385.051,547.875 386.023,546.227 386.25,546C386.477,545.773 387.375,544.199 388.352,542.477C389.25,540.676 390.75,537.824 391.727,536.102C392.625,534.301 393.523,532.727 393.75,532.5C393.977,532.273 394.875,530.699 395.852,528.977C396.75,527.176 398.25,524.324 399.227,522.602C400.125,520.802 401.023,519.227 401.25,519C401.477,518.773 402.301,517.273 403.199,515.625C404.023,513.977 405.523,511.273 406.5,509.625C407.477,507.977 408.75,505.648 409.426,504.449C410.102,503.25 411.898,501.227 413.477,500.023C415.875,498 416.773,497.773 421.352,497.773C426.977,497.773 431.102,499.727 432.898,503.25C433.426,504.301 434.023,505.273 434.25,505.5C434.477,505.727 435.449,507.375 436.426,509.25C437.398,511.125 438.898,513.977 439.801,515.625C440.612,517.247 441.495,518.726 441.739,518.988L441.761,519.012C442.005,519.274 442.888,520.753 443.699,522.375C444.602,524.023 446.102,526.875 447.074,528.75C448.036,530.596 448.993,532.222 449.239,532.488L449.261,532.512ZM307.5,641.25C306.898,640.949 304.051,639.602 301.125,638.25C298.273,636.898 295.051,635.398 294,634.801C292.949,634.199 290.25,632.852 288,631.727C285.75,630.602 283.727,629.477 283.5,629.25C283.125,628.875 282.602,628.574 276.824,625.352C275.324,624.523 273.227,623.176 272.102,622.426C271.051,621.602 269.773,621 269.324,621C268.875,621 268.5,620.699 268.5,620.25C268.5,619.875 268.051,619.5 267.523,619.5C267,619.5 265.801,618.824 264.898,618C264,617.176 263.023,616.5 262.648,616.5C262.352,616.5 261.375,615.898 260.551,615.148C259.801,614.398 257.101,612.449 254.625,610.727C252.148,609 249.449,607.051 248.625,606.227C247.801,605.477 245.926,604.051 244.5,603C243.074,602.023 241.352,600.676 240.75,600C240.148,599.398 237.75,597.375 235.5,595.5C228.375,589.727 208.5,569.25 208.5,567.75C208.5,567 208.949,566.023 209.551,565.727C210.148,565.426 214.273,561.75 218.773,557.551C223.199,553.426 228.375,548.699 230.25,547.051C232.051,545.477 235.125,542.625 237,540.75C238.875,538.875 242.926,535.199 246,532.5C249.074,529.801 252.824,526.426 254.25,525C255.676,523.574 259.726,519.824 263.25,516.75C266.773,513.677 270.449,510.301 271.5,509.25C272.551,508.199 276.227,504.824 279.75,501.75C283.199,498.676 287.25,494.926 288.75,493.5C290.176,492.074 294.227,488.324 297.75,485.25C301.199,482.176 305.25,478.426 306.75,477C312.824,470.926 323.551,462 324.676,462C325.426,462 326.25,461.699 326.625,461.398C330.375,458.176 347.551,458.551 353.699,462C354.977,462.75 356.852,463.801 357.824,464.398C361.125,466.199 368.625,474.301 370.199,477.75C372.375,482.398 373.5,486.074 373.5,488.699C373.5,489.898 373.801,491.324 374.102,491.852C375,493.199 373.648,502.352 372.074,505.875C371.324,507.523 369.602,511.273 368.25,514.125C366.898,517.052 365.25,520.727 364.5,522.375C363.75,524.023 362.102,527.773 360.75,530.625C359.398,533.551 357.75,537.227 357,538.875C356.25,540.523 354.602,544.273 353.25,547.125C351.898,550.051 350.25,553.727 349.5,555.375C348.75,557.023 347.102,560.773 345.75,563.625C344.398,566.551 342.75,570.227 342,571.875C341.25,573.523 339.602,577.273 338.25,580.125C336.898,583.051 335.25,586.727 334.5,588.375C333.75,590.023 332.102,593.773 330.75,596.625C329.398,599.551 327.75,603.227 327,604.875C326.25,606.523 324.602,610.273 323.25,613.125C321.898,616.051 320.25,619.727 319.5,621.375C318.75,623.023 317.176,626.551 315.898,629.25C314.699,631.949 312.824,635.926 311.926,638.023C310.125,642 309.523,642.449 307.5,641.25ZM536.625,638.551C536.023,637.574 535.5,636.523 535.5,636.227C535.5,635.926 533.852,632.176 531.75,627.977C529.727,623.699 526.352,616.727 524.25,612.375C522.227,608.023 518.852,600.977 516.75,596.625C514.727,592.273 511.273,585.148 509.176,580.727C507.074,576.227 504.074,569.926 502.5,566.625C500.926,563.324 497.551,556.273 495,550.875C492.449,545.551 488.699,537.676 486.676,533.477C479.926,519.302 475.352,509.625 473.176,505.125C471.301,501.227 471,499.648 470.926,493.801C470.852,490.051 471.227,485.699 471.75,484.051C473.398,478.949 477,472.199 479.477,469.426C482.023,466.648 490.574,460.5 492,460.5C492.375,460.5 493.352,460.199 494.102,459.824C496.273,458.699 502.352,457.5 505.875,457.5C513.602,457.5 523.198,461.398 529.125,467.102C531.227,469.051 535.051,472.5 537.75,474.75C540.449,477 543.449,479.699 544.5,480.75C545.551,481.801 548.551,484.5 551.25,486.75C553.949,489 556.949,491.699 558,492.75C559.051,493.801 561.75,496.125 564,498C566.25,499.875 568.949,502.199 570,503.25C571.051,504.301 574.426,507.301 577.5,510C580.574,512.699 583.648,515.398 584.25,516C584.852,516.602 587.25,518.625 589.5,520.5C591.75,522.375 594.449,524.699 595.5,525.75C596.551,526.801 599.926,529.801 603,532.5C606.074,535.199 609.148,537.898 609.75,538.5C610.352,539.102 613.051,541.5 615.75,543.75C618.449,546 621.148,548.324 621.75,549C622.352,549.602 625.426,552.301 628.5,555C637.125,562.5 638.324,563.926 637.5,565.5C636.449,567.449 609.824,594.074 606.301,596.699C604.727,597.898 602.852,599.398 602.25,600C601.648,600.676 599.926,602.023 598.5,603C597.074,603.977 595.352,605.324 594.75,606C594.148,606.676 591.449,608.699 588.75,610.5C586.051,612.301 583.727,613.949 583.5,614.25C582.75,615.227 576.074,619.5 575.324,619.5C574.875,619.5 574.5,619.875 574.5,620.25C574.5,620.699 574.125,621 573.676,621C573.301,621 570.977,622.273 568.648,623.852C566.324,625.426 563.398,627.148 562.125,627.75C560.926,628.352 559.727,629.023 559.5,629.25C559.273,629.477 557.773,630.301 556.125,631.199C554.477,632.023 552.449,633.074 551.625,633.523C550.801,633.977 547.352,635.699 543.977,637.352L537.824,640.352L536.625,638.551ZM189,543.977C186.301,540 183.824,536.25 183.375,535.574C183,534.898 182.477,534.227 182.25,534C181.5,533.25 179.176,529.125 178.727,527.852C178.5,527.102 178.051,526.5 177.75,526.5C177.449,526.5 177,525.898 176.773,525.227C176.477,524.477 175.273,522.227 174.074,520.125C171.977,516.602 162.523,497.926 161.25,494.625C160.949,493.801 159.977,491.551 159.074,489.602C158.176,487.648 157.5,485.699 157.5,485.25C157.5,484.801 157.199,483.898 156.824,483.148C156.449,482.477 155.773,480.898 155.25,479.625C154.727,478.426 154.051,476.773 153.676,476.102C153.301,475.352 153,474.227 153,473.625C153,473.023 152.699,471.898 152.324,471.148C151.949,470.477 151.273,468.375 150.75,466.5C150.227,464.625 149.551,462.523 149.176,461.852C148.801,461.102 148.5,459.676 148.5,458.699C148.5,457.648 148.199,456.676 147.824,456.449C147.449,456.227 146.926,454.949 146.699,453.602C145.5,447.824 144.75,444.148 144,440.852C141.523,429.449 140.699,424.426 139.574,413.477C139.199,410.102 138.676,407.023 138.523,406.727C138.301,406.352 138,399.523 137.926,391.5L137.773,376.875L140.699,376.949C143.477,377.023 146.551,377.551 155.625,379.5C157.727,379.875 161.25,380.625 163.5,381C165.75,381.449 169.125,382.125 171,382.5C172.875,382.801 176.398,383.477 178.875,384C181.352,384.449 185.102,385.125 187.125,385.574C189.227,385.949 192.375,386.625 194.25,386.926C196.125,387.301 199.648,387.977 202.125,388.5C204.602,389.023 208.199,389.699 210.227,390.074C212.176,390.449 215.477,391.125 217.5,391.5C219.602,391.949 222.824,392.551 224.852,392.926C228.227,393.602 233.398,394.574 240.75,396.074C242.625,396.449 246.148,397.125 248.625,397.574C253.125,398.398 256.726,399.074 263.625,400.426C272.102,402.148 275.102,402.75 279.375,403.5C281.852,404.023 285.375,404.699 287.25,405C289.125,405.375 291.824,405.898 293.25,406.125C296.852,406.727 301.5,408 303.75,409.051C309.074,411.449 313.051,419.625 311.176,424.199C309.227,429.148 308.398,430.273 303.824,435C301.199,437.699 296.852,442.426 294.074,445.5C291.375,448.574 287.25,452.926 285,455.25C282.75,457.5 278.023,462.602 274.5,466.5C270.977,470.398 266.25,475.5 264,477.75C261.75,480 257.023,485.102 253.5,489C249.977,492.898 245.25,498 243,500.25C240.75,502.5 236.023,507.602 232.5,511.5C228.977,515.398 224.625,520.125 222.75,522C220.875,523.875 216.523,528.602 213,532.5C203.926,542.551 195.375,551.25 194.551,551.25C194.176,551.25 191.699,547.949 189,543.977ZM643.125,539.926C639.449,535.801 630.676,526.648 623.625,519.449C616.648,512.324 605.324,500.625 598.5,493.5C591.676,486.301 581.926,476.25 576.824,471.074C571.727,465.898 562.648,456.375 556.574,450C550.574,443.625 543.375,436.199 540.602,433.426C533.773,426.602 532.5,424.352 532.5,419.023C532.5,414.375 533.25,412.5 536.477,409.273C538.801,406.949 541.125,405.824 545.852,404.926C547.574,404.551 550.574,403.875 552.602,403.5C554.551,403.051 557.625,402.375 559.5,402C561.375,401.625 564.375,400.949 566.25,400.574C568.125,400.125 571.5,399.449 573.75,399C578.398,398.023 582.523,397.125 587.852,396C589.801,395.551 592.875,394.875 594.75,394.5C602.023,393.074 609.75,391.426 616.125,390C623.926,388.273 626.773,387.676 630,387C637.273,385.574 645,383.926 651.375,382.5C659.176,380.773 662.023,380.176 665.25,379.5C672.523,378.074 680.25,376.426 686.625,375C688.5,374.625 691.426,373.949 693.227,373.574C694.949,373.273 696.898,372.75 697.5,372.523C698.102,372.301 700.051,371.926 701.852,371.699L705.074,371.25L704.699,389.773C704.551,400.051 704.023,410.926 703.574,414C702.227,423.898 701.324,429.301 700.5,433.5C698.477,442.949 698.176,444.523 697.801,447.602C697.5,449.324 696.977,450.977 696.676,451.199C696.301,451.426 696,452.398 696,453.449C696,454.426 695.699,455.852 695.324,456.602C694.273,458.773 693,463.125 693,464.852C693,465.676 692.699,466.648 692.25,466.875C691.875,467.102 691.5,468.074 691.5,469.051C691.5,469.949 691.199,471 690.898,471.375C690.602,471.824 689.852,473.477 689.324,475.125C688.426,478.051 687.977,479.176 686.398,483C686.023,484.051 685.273,486.074 684.75,487.5C683.324,491.551 672.227,515.102 671.25,516C671.023,516.227 670.199,517.727 669.301,519.375C666.523,524.625 664.426,528.148 661.426,532.574C659.852,534.977 658.5,537.227 658.5,537.676C658.5,538.051 658.199,538.5 657.898,538.648C657,538.949 652.5,545.773 652.5,546.676C652.5,549 649.199,546.602 643.125,539.926ZM419.926,465.676C419.398,465.301 418.273,465 417.523,465C415.5,465 411.449,462 409.648,459.227C407.477,455.926 407.398,449.773 409.574,445.727C411.375,442.273 415.125,439.648 418.574,439.5C425.477,439.125 426.523,439.426 429.898,442.727C433.5,446.25 435.602,451.949 434.25,454.5C433.875,455.25 433.5,456.449 433.5,457.199C433.5,459 427.273,465 425.324,465C424.426,465 423.074,465.301 422.324,465.676C421.574,466.125 420.602,466.125 419.926,465.676ZM418.5,428.25C417.449,427.949 415.051,427.648 413.102,427.574C411.148,427.5 409.352,427.199 409.125,426.75C408.898,426.375 408,426 407.176,426C406.426,426 405.148,425.699 404.398,425.398C403.125,424.727 402.301,424.273 396.449,421.199C392.625,419.102 383.25,409.801 381.301,406.125C380.477,404.477 379.426,402.449 378.977,401.625C376.727,397.426 375.301,392.176 374.551,385.875C374.25,383.398 374.023,381.074 374.102,380.773C374.176,380.477 374.477,377.625 374.773,374.551C375,371.477 375.523,368.773 375.824,368.551C376.199,368.324 376.5,367.5 376.5,366.676C376.5,365.102 376.801,364.426 381.301,355.949C383.398,352.125 392.699,342.75 396.375,340.801C401.852,337.949 402.75,337.5 404.25,336.75C405.074,336.375 406.426,336 407.176,336C408,336 408.824,335.699 409.051,335.324C409.426,334.727 417.074,333.676 421.5,333.602C427.199,333.449 437.023,335.773 442.125,338.477C442.949,338.926 444.977,339.977 446.551,340.801C450.375,342.824 459.676,352.125 461.699,355.949C462.523,357.523 463.648,359.699 464.25,360.75C466.125,364.352 466.5,365.25 466.5,366.602C466.5,367.352 466.875,368.324 467.398,368.852C468.676,370.125 468.676,388.727 467.324,393C466.199,396.824 465.148,399.449 464.023,401.625C463.574,402.449 462.523,404.477 461.699,406.051C459.676,409.801 450.301,419.176 446.551,421.199C444.977,422.023 442.949,423.074 442.125,423.523C437.852,425.773 432.602,427.273 426.449,427.949C423.977,428.176 421.648,428.477 421.199,428.625C420.75,428.773 419.551,428.551 418.5,428.25ZM428.102,418.801C430.273,418.5 432.227,417.977 432.449,417.676C432.676,417.301 433.426,417 434.176,417C435.824,417 441.148,414.301 445.125,411.375C450.301,407.625 457.5,397.352 457.5,393.676C457.5,392.926 457.875,392.102 458.25,391.875C458.699,391.648 459,390.301 459,389.023C459,387.676 459.301,385.426 459.75,384C460.875,379.949 459,370.574 455.477,363.148C453.824,359.625 447.602,352.5 443.625,349.5C437.625,345 423.676,341.25 418.5,342.75C417.074,343.199 414.824,343.5 413.477,343.5C412.199,343.5 410.852,343.875 410.625,344.25C410.398,344.699 409.574,345 408.75,345C407.324,345 402,347.551 399.375,349.5C397.5,350.926 391.426,357 390,358.875C388.051,361.5 385.5,366.824 385.5,368.25C385.5,369.074 385.199,369.898 384.75,370.125C384.375,370.352 384,371.699 384,372.977C384,374.324 383.699,376.574 383.25,378C381.75,383.176 385.5,397.125 390,403.125C393,407.102 400.125,413.324 403.648,414.977C409.949,417.977 418.648,420.148 422.25,419.551C423.301,419.398 425.926,419.023 428.102,418.801ZM350.25,415.949C346.273,414.676 344.477,413.477 342.301,410.625C340.648,408.375 340.352,407.25 340.352,403.273C340.352,394.949 345.148,390 353.25,390C362.324,390 366.676,395.551 366.148,406.352C366,409.352 360.676,415.051 357.301,415.727C356.102,415.949 354.602,416.324 354,416.477C353.398,416.699 351.676,416.477 350.25,415.949ZM486.75,415.949C482.773,414.676 480.977,413.477 478.801,410.625C477.148,408.375 476.852,407.25 476.852,403.273C476.852,394.949 481.648,390 489.75,390C498.824,390 503.176,395.551 502.648,406.352C502.5,409.352 497.176,415.051 493.801,415.727C492.602,415.949 491.102,416.324 490.5,416.477C489.898,416.699 488.176,416.477 486.75,415.949ZM281.773,374.551C281.477,374.25 277.648,373.727 273.227,373.352C262.273,372.449 250.949,371.477 241.875,370.5C232.051,369.523 220.574,368.477 210.375,367.574C205.875,367.125 198.602,366.449 194.25,366C179.324,364.5 160.125,362.699 147.375,361.648C143.25,361.352 139.426,360.75 138.824,360.449C138.074,360 138,358.949 138.301,356.699C138.602,355.051 139.125,350.926 139.574,347.625C140.398,340.648 141.375,334.273 142.5,328.727C142.875,326.551 143.625,322.949 144.074,320.852C144.449,318.676 145.051,315.602 145.273,314.023C145.5,312.523 145.949,311.023 146.324,310.801C146.699,310.574 147,309.449 147,308.25C147,307.051 147.375,305.852 147.75,305.625C148.199,305.398 148.5,304.426 148.5,303.602C148.5,301.875 149.773,297.523 150.824,295.352C151.199,294.602 151.5,293.324 151.5,292.574C151.5,291.75 151.875,290.852 152.25,290.625C152.699,290.398 153,289.352 153,288.375C153,287.398 153.375,286.352 153.75,286.125C154.199,285.898 154.5,285 154.5,284.176C154.5,283.426 154.801,282.148 155.176,281.398C155.926,279.977 157.426,276.449 158.25,274.125C159.301,271.352 165.898,256.801 167.477,253.875C167.926,253.051 169.273,250.5 170.477,248.25C171.676,246 173.176,243.227 173.773,242.102C174.375,240.898 175.125,240 175.5,240C176.102,240 179.25,241.648 188.625,246.75C190.875,248.023 194.625,250.051 196.875,251.25C199.125,252.523 202.949,254.551 205.352,255.824C207.676,257.176 211.648,259.273 214.125,260.551C216.602,261.824 218.773,263.023 219,263.25C219.375,263.625 223.125,265.648 230.625,269.551C233.102,270.824 235.273,272.023 235.5,272.25C235.727,272.477 237.898,273.676 240.375,274.949C247.875,278.852 251.625,280.875 252,281.25C252.227,281.477 254.398,282.676 256.875,283.949C259.351,285.227 263.324,287.324 265.727,288.676C268.051,289.949 271.875,292.051 274.125,293.25C276.375,294.523 280.125,296.551 282.375,297.75C284.625,299.023 288.375,301.051 290.625,302.25C292.875,303.523 296.699,305.551 299.102,306.824C301.426,308.176 305.25,310.199 307.5,311.398C316.5,316.199 322.5,327.75 322.5,340.352C322.5,348.523 321.227,352.727 316.949,359.25C314.551,362.852 308.477,369 307.352,369C306.977,369 305.176,370.051 303.375,371.25C301.574,372.523 299.25,373.5 298.199,373.5C297.148,373.5 296.102,373.875 295.875,374.25C295.352,375.074 282.523,375.301 281.773,374.551ZM548.699,372.824C548.398,372.375 547.352,372 546.301,372C545.324,372 543.898,371.699 543.148,371.324C542.477,370.949 540.75,370.125 539.477,369.602C538.125,369.074 537,368.398 537,368.102C537,367.727 536.477,367.5 535.875,367.5C533.699,367.5 525.977,358.801 523.426,353.477C520.273,346.875 518.773,338.699 519.823,333.449C520.948,327.449 522.148,323.773 523.648,321.602C524.398,320.551 525,319.426 525,319.199C525,317.773 532.574,310.199 535.426,308.699C536.477,308.176 538.648,307.051 540.227,306.148C541.727,305.25 544.199,303.824 545.625,303C547.051,302.176 549.449,300.824 550.875,300C552.301,299.176 554.773,297.75 556.352,296.852C557.852,296.023 561,294.301 563.25,293.102C565.5,291.898 567.676,290.625 568.125,290.25C568.574,289.875 570.75,288.602 573,287.398C575.25,286.199 578.398,284.477 579.977,283.648C581.477,282.75 583.949,281.324 585.375,280.5C586.801,279.676 589.199,278.324 590.625,277.5C592.051,276.676 594.449,275.324 595.875,274.5C597.301,273.676 599.773,272.25 601.352,271.352C602.852,270.523 605.852,268.875 607.875,267.75C609.977,266.625 612.824,265.051 614.324,264.148C615.824,263.324 617.852,262.199 618.824,261.602C619.801,261.074 620.773,260.477 621,260.25C621.227,260.023 622.727,259.199 624.375,258.301C626.023,257.477 628.648,255.977 630.227,255.148C631.727,254.25 634.199,252.824 635.625,252C637.051,251.176 639.449,249.824 640.875,249C642.301,248.176 644.773,246.75 646.352,245.852C647.852,245.023 650.477,243.523 652.125,242.699C653.773,241.801 655.273,240.977 655.5,240.75C655.727,240.523 656.699,239.926 657.676,239.398C665.773,234.824 665.625,234.824 666.227,236.852C666.523,237.523 667.727,239.852 668.926,241.875C671.102,245.477 680.551,264.301 681.75,267.375C682.051,268.199 683.102,270.602 684,272.625C686.25,277.574 686.699,278.852 687.824,282.375C688.352,284.023 689.102,285.676 689.398,286.125C689.699,286.5 690,287.551 690,288.449C690,289.426 690.375,290.398 690.75,290.625C691.199,290.852 691.5,291.898 691.5,292.875C691.5,293.852 691.875,294.898 692.25,295.125C692.699,295.352 693,296.551 693,297.75C693,298.949 693.301,300.074 693.676,300.301C694.051,300.523 694.5,301.648 694.727,302.773C694.949,303.977 695.551,306.301 695.926,308.102C697.875,315.824 698.398,317.852 699.074,321C700.875,329.102 703.125,343.273 703.875,351.074L704.25,355.273L701.398,355.801C697.801,356.551 689.102,357.523 666.75,360C658.949,360.824 649.648,361.875 639.602,363C635.926,363.449 630.074,364.051 626.477,364.5C622.801,364.875 617.023,365.551 613.5,366C609.977,366.449 604.125,367.125 600.375,367.5C596.699,367.875 590.625,368.551 586.875,369C579.227,369.898 570.602,370.875 560.25,372C556.352,372.375 552.227,372.898 551.176,373.199C550.051,373.426 548.926,373.273 548.699,372.824ZM372,334.051C364.352,328.648 363.898,318.449 371.176,312.227C372.227,311.25 373.727,310.5 374.477,310.5C375.227,310.5 376.5,310.125 377.25,309.75C379.574,308.477 385.426,310.5 388.574,313.574C393.824,318.824 393.977,326.773 388.875,331.949C385.574,335.324 383.852,336 378.977,336C375.602,335.926 374.023,335.551 372,334.051ZM457.875,335.102C455.102,333.523 451.801,329.398 450.824,326.176C448.801,319.5 453.449,311.852 460.648,309.977C464.25,309 464.852,309.074 470.25,311.551C476.477,314.324 478.949,322.949 475.352,329.324C472.875,333.75 468.977,336 463.727,336C461.324,336 458.699,335.551 457.875,335.102ZM338.25,290.102C334.574,288.602 330.301,286.648 325.5,284.398C322.801,283.199 319.273,281.551 317.625,280.875C315.977,280.199 312.977,278.852 310.875,277.875C307.273,276.227 304.648,275.102 298.727,272.551C294.148,270.602 290.25,268.875 284.625,266.25C281.773,264.898 278.699,263.551 277.875,263.25C276,262.574 271.125,260.398 264.375,257.25C261.523,255.898 257.699,254.176 255.977,253.426C254.176,252.602 251.25,251.324 249.375,250.5C247.5,249.676 244.5,248.324 242.625,247.5C240.75,246.676 237.75,245.324 235.875,244.5C234,243.676 231,242.324 229.125,241.5C227.25,240.676 224.25,239.324 222.375,238.5C220.5,237.676 217.5,236.324 215.625,235.5C213.75,234.676 210.75,233.324 208.875,232.5C207,231.676 204,230.324 202.125,229.5C200.25,228.676 197.324,227.324 195.602,226.574C193.801,225.824 191.102,224.625 189.602,223.949C186.074,222.375 185.773,221.852 187.352,220.051C188.102,219.301 189.449,217.426 190.5,216C191.477,214.574 192.523,213.227 192.75,213C192.977,212.773 194.023,211.426 195,210C195.977,208.574 197.023,207.227 197.25,207C197.477,206.773 198.602,205.352 199.727,203.773C200.926,202.273 202.574,200.25 203.477,199.273C204.375,198.375 206.625,195.75 208.5,193.5C212.852,188.25 231.449,169.574 235.199,166.801C236.852,165.602 238.875,163.875 239.773,162.977C240.676,162.074 242.773,160.426 244.273,159.227C245.852,158.102 248.176,156.227 249.375,155.102C250.648,153.898 252,153 252.523,153C252.977,153 253.5,152.699 253.648,152.398C253.801,152.023 257.101,149.625 261,147C264.898,144.375 268.273,142.051 268.5,141.824C268.727,141.602 269.699,140.926 270.676,140.398C271.648,139.801 273.676,138.676 275.176,137.852C276.676,137.023 278.699,135.75 279.75,135.074C280.801,134.398 282.676,133.352 283.875,132.75C285.148,132.148 286.273,131.477 286.5,131.25C286.875,130.801 295.5,126.602 306.602,121.426C310.199,119.699 313.727,118.051 314.398,117.676C315.148,117.301 316.273,117 316.875,117C317.477,117 318.602,116.699 319.352,116.324C321.074,115.426 323.852,114.375 327,113.25C328.426,112.727 330.375,111.977 331.352,111.523C333.676,110.398 334.273,111.301 334.801,116.625C335.25,120.898 335.625,123.676 337.5,136.5C337.949,139.574 338.625,144.301 339,147C339.301,149.699 339.977,154.426 340.426,157.5C341.176,162.75 341.551,165.602 343.5,179.25C345.449,192.898 345.824,195.75 346.574,201C348.227,212.773 348.75,216.523 349.426,222C350.176,227.551 351.074,234 352.5,243.75C352.949,246.449 353.551,251.023 354,253.875C354.375,256.801 355.051,261.523 355.5,264.375C357.074,275.477 357.148,279.227 355.949,282.148C352.949,289.125 344.699,292.801 338.25,290.102ZM492.602,288.449C489.75,287.25 486.898,284.324 485.477,281.477C484.273,278.852 484.426,271.5 486,259.5C486.375,256.426 487.051,251.102 487.5,247.727C487.875,244.273 488.625,238.727 489,235.352C489.449,231.898 490.125,226.273 490.5,222.75C490.875,219.227 491.551,213.602 492,210.227C492.375,206.773 493.125,201.301 493.5,198C493.949,194.699 494.625,189.227 495,185.773C495.449,182.398 496.125,176.773 496.574,173.25C497.398,165.602 498.449,157.727 499.5,149.625C499.949,146.324 500.625,140.773 501,137.25C501.375,133.727 502.051,128.023 502.5,124.5C502.949,120.977 503.477,116.176 503.773,113.852C504.074,110.477 504.449,109.5 505.426,109.5C506.102,109.5 507,109.801 507.375,110.102C507.824,110.477 510.676,111.523 513.75,112.5C516.823,113.477 519.676,114.523 520.125,114.898C520.5,115.199 521.398,115.5 522.148,115.5C522.898,115.5 524.102,115.801 524.852,116.176C525.523,116.551 527.699,117.523 529.727,118.426C531.676,119.324 534.75,120.676 536.625,121.5C538.5,122.324 541.574,123.676 543.602,124.574C547.574,126.375 548.852,126.977 552.676,129.148C554.176,130.051 557.102,131.625 559.125,132.75C566.176,136.574 568.5,138 578.852,144.898C587.773,150.824 594.227,155.477 595.5,156.75C596.176,157.5 600.449,160.875 603.074,162.75C608.551,166.801 626.625,184.426 634.5,193.5C637.199,196.574 639.824,199.574 640.352,200.102C640.875,200.699 642.227,202.352 643.352,203.852C644.477,205.426 645.523,206.773 645.75,207C645.977,207.227 647.023,208.574 648,210C648.977,211.426 650.023,212.773 650.25,213C651,213.602 654,218.102 654,218.551C654,218.773 653.551,219 653.102,219C652.574,219 649.273,220.352 645.75,222.074C642.227,223.801 637.352,226.125 634.875,227.25C626.551,231.074 620.625,233.773 613.875,237C610.199,238.727 605.102,241.125 602.625,242.25C600.148,243.375 595.125,245.773 591.375,247.5C578.551,253.574 571.875,256.727 567.375,258.75C559.051,262.574 553.125,265.273 546.375,268.5C542.699,270.227 537.602,272.625 535.125,273.75C532.648,274.875 527.625,277.273 523.875,279C503.102,288.824 501.375,289.5 497.852,289.426C496.051,289.426 493.727,288.977 492.602,288.449ZM413.625,275.25C413.398,274.875 412.574,274.5 411.824,274.5C409.273,274.5 401.102,269.699 397.051,265.801C394.801,263.625 393,261.676 393,261.449C393,261.148 392.102,259.574 390.977,257.926C389.926,256.273 388.727,253.352 388.352,251.398C387.977,249.449 387.375,246.301 387,244.352C386.551,242.324 385.949,239.176 385.5,237.227C385.125,235.199 384.523,232.125 384.074,230.25C383.699,228.375 383.023,224.852 382.5,222.375C381.602,217.727 380.926,214.574 379.574,207.977C379.125,205.801 378.375,202.199 377.926,200.102C377.477,197.926 376.801,194.625 376.426,192.75C375.977,190.875 375.375,187.727 374.926,185.625C374.551,183.602 373.875,180.301 373.5,178.352C373.051,176.324 372.375,172.949 372,170.852C371.023,166.199 370.125,161.398 369.074,156.75C368.699,154.875 368.023,151.352 367.5,148.875C366.977,146.398 366.301,143.023 366,141.375C365.625,139.727 364.949,136.5 364.5,134.25C363.977,132 363.301,128.625 362.926,126.75C361.727,121.051 359.398,109.574 358.801,106.051C358.352,103.801 358.426,103.727 361.648,103.273C363.375,102.977 366.602,102.449 368.625,102C384,98.852 396.074,97.875 421.5,97.875C446.926,97.875 459,98.852 474.375,102C476.477,102.449 479.625,102.977 481.352,103.273L484.648,103.727L484.199,106.801C483.824,109.727 483.227,113.25 481.574,120.75C481.199,122.625 480.523,126.148 480,128.625C479.477,131.102 478.801,134.625 478.426,136.5C477.449,141 476.477,145.801 475.574,150.375C475.125,152.477 474.449,155.852 474,157.875C473.551,159.977 472.875,163.199 472.5,165.227C472.051,167.176 471.449,170.324 471,172.352C470.625,174.301 469.949,177.602 469.574,179.625C469.125,181.727 468.523,184.875 468.074,186.75C467.699,188.625 467.023,192 466.5,194.25C466.051,196.5 465.375,199.727 465,201.375C464.699,203.023 464.023,206.398 463.5,208.875C462.977,211.352 462.301,214.875 461.926,216.75C461.477,218.625 460.875,221.699 460.5,223.727C460.051,225.676 459.449,228.824 459,230.852C458.625,232.801 457.949,236.102 457.5,238.125C456.301,243.977 455.176,249.898 454.727,252.898C454.5,254.398 453.676,256.352 452.926,257.176C452.176,258 451.5,259.051 451.5,259.574C451.5,260.773 440.477,271.5 439.199,271.5C438.676,271.5 437.102,272.102 435.676,272.773C434.25,273.523 431.926,274.5 430.5,275.023C427.352,276.148 414.301,276.301 413.625,275.25Z"/>
        </g>
    </g>
</svg>
